<?xml version="1.0" encoding="utf-8"?>
<!-- Generator: Adobe Illustrator 23.0.1, SVG Export Plug-In . SVG Version: 6.00 Build 0)  -->
<svg version="1.1" xmlns="http://www.w3.org/2000/svg" xmlns:xlink="http://www.w3.org/1999/xlink" x="0px" y="0px"
	 viewBox="0 0 341.7 341.7" style="enable-background:new 0 0 341.7 341.7;" xml:space="preserve">
<style type="text/css">
	.st0{fill:url(#SVGID_1_);}
	.st1{fill:url(#SVGID_2_);}
	.st2{fill:url(#SVGID_3_);}
	.st3{fill:url(#SVGID_4_);}
	.st4{fill:url(#SVGID_5_);}
	.st5{fill:url(#SVGID_6_);}
	.st6{fill:url(#SVGID_7_);}
	.st7{fill:url(#SVGID_8_);}
	.st8{fill:url(#SVGID_9_);}
</style>
<g id="Layer_1">
</g>
<g id="Layer_2">
	<g>
		<g>
			<g>
				<linearGradient id="SVGID_1_" gradientUnits="userSpaceOnUse" x1="286.0031" y1="401.7003" x2="39.8641" y2="29.1429">
					<stop  offset="0" style="stop-color:#FF5529"/>
					<stop  offset="0.5656" style="stop-color:#FF9D29"/>
					<stop  offset="1" style="stop-color:#FFC529"/>
				</linearGradient>
				<path class="st0" d="M148.3,188.5h-28.1v-22.2h8v2.8l15.3,0c0.5,0,0.8-0.1,1-0.2c0,0,0.3-0.3,0.3-1.6c0-1-0.1-1.5-0.2-1.7
					c-0.1-0.2-0.1-0.2-0.1-0.2c-0.1,0-0.3-0.1-0.9-0.1h-23.3v-7.5h25.8c1.8,0,3.4,0.5,4.7,1.4c1.4,1,2.1,2.7,2.1,5v5.5
					c0,0.6-0.1,1.1-0.2,1.5c1.5,1,2.2,2.4,2.2,4.3v7.3C154.6,186.5,152.3,188.5,148.3,188.5z M122.1,186.5h26.1c3.8,0,4.4-2,4.4-3.7
					v-7.2c0-1.4-0.6-2.3-2-2.9l-1.1-0.5l0.7-1c0.2-0.3,0.3-0.8,0.3-1.4v-5.5c0-1.6-0.4-2.8-1.3-3.4c-0.9-0.7-2.1-1-3.5-1h-23.8v3.5
					h21.3c0.7,0,1.2,0.1,1.7,0.2c0.4,0.1,1,0.5,1.3,1.4c0.2,0.5,0.3,1.3,0.3,2.4c0,1.5-0.3,2.4-0.8,3c-0.6,0.6-1.4,0.9-2.4,0.9
					l-17.3,0v-2.8h-4V186.5z M145.5,183.1h-19.3v-8.4h19.3c1.4,0,2.1,0.6,2.5,1.1c0.5,0.7,0.8,1.7,0.8,3.3c0,1.6-0.3,2.6-0.8,3.1
					l0,0C147.4,182.8,146.5,183.1,145.5,183.1z M128.1,181.1h17.3c0.5,0,0.8-0.1,1-0.3c0,0,0.3-0.3,0.3-1.8c0-1.5-0.3-2-0.3-2.1
					c-0.1-0.1-0.3-0.3-1-0.3h-17.3V181.1z"/>
			</g>
			<g>
				<linearGradient id="SVGID_2_" gradientUnits="userSpaceOnUse" x1="311.4353" y1="384.8979" x2="65.2963" y2="12.3405">
					<stop  offset="0" style="stop-color:#FF5529"/>
					<stop  offset="0.5656" style="stop-color:#FF9D29"/>
					<stop  offset="1" style="stop-color:#FFC529"/>
				</linearGradient>
				<path class="st1" d="M163.1,188.5h-8v-22.2h8v2.8h6.5c2.7,0,5.7,0,8.8,0l1,0l0.1,7.5h-16.4V188.5z M157.1,186.5h4v-11.9h16.3
					l0-3.5c-2.7,0-5.3,0-7.8,0h-8.5v-2.8h-4V186.5z M188,165.3h-32.9v-7.5H188V165.3z M157.1,163.3H186v-3.5h-28.9V163.3z"/>
			</g>
			<g>
				<linearGradient id="SVGID_3_" gradientUnits="userSpaceOnUse" x1="325.9897" y1="375.2822" x2="79.8507" y2="2.7248">
					<stop  offset="0" style="stop-color:#FF5529"/>
					<stop  offset="0.5656" style="stop-color:#FF9D29"/>
					<stop  offset="1" style="stop-color:#FFC529"/>
				</linearGradient>
				<path class="st2" d="M196.5,188.5h-8v-30.7h8V188.5z M190.5,186.5h4v-26.7h-4V186.5z"/>
			</g>
			<g>
				<linearGradient id="SVGID_4_" gradientUnits="userSpaceOnUse" x1="345.7383" y1="362.2349" x2="99.5992" y2="-10.3225">
					<stop  offset="0" style="stop-color:#FF5529"/>
					<stop  offset="0.5656" style="stop-color:#FF9D29"/>
					<stop  offset="1" style="stop-color:#FFC529"/>
				</linearGradient>
				<path class="st3" d="M218.2,188.5h-8v-21.6h8V188.5z M212.2,186.5h4v-17.6h-4V186.5z M231.5,165.9h-34.5v-8h34.5V165.9z
					 M198.9,163.9h30.5v-4h-30.5V163.9z"/>
			</g>
		</g>
		<linearGradient id="SVGID_5_" gradientUnits="userSpaceOnUse" x1="312.0186" y1="384.5126" x2="65.8795" y2="11.9552">
			<stop  offset="0" style="stop-color:#FF5529"/>
			<stop  offset="0.5656" style="stop-color:#FF9D29"/>
			<stop  offset="1" style="stop-color:#FFC529"/>
		</linearGradient>
		<path class="st4" d="M170.9,0C76.7,0,0,76.7,0,170.9s76.7,170.9,170.9,170.9s170.9-76.7,170.9-170.9S265.1,0,170.9,0z
			 M170.9,328.7C83.8,328.7,13,257.9,13,170.9C13,83.8,83.8,13,170.9,13s157.9,70.8,157.9,157.9
			C328.7,257.9,257.9,328.7,170.9,328.7z"/>
		<linearGradient id="SVGID_6_" gradientUnits="userSpaceOnUse" x1="387.9709" y1="334.3328" x2="141.8319" y2="-38.2246">
			<stop  offset="0" style="stop-color:#FF5529"/>
			<stop  offset="0.5656" style="stop-color:#FF9D29"/>
			<stop  offset="1" style="stop-color:#FFC529"/>
		</linearGradient>
		<path class="st5" d="M170.3,26.4c-13.9,0-27.6,2-40.7,5.8c-1.6,0.5-2.5,2.1-2,3.7c0.5,1.6,2.1,2.5,3.7,2c12.6-3.7,25.8-5.6,39-5.6
			c76.4,0,138.5,62.1,138.5,138.5c0,31.8-11,62.8-31,87.4c-1,1.3-0.9,3.2,0.4,4.2c0.6,0.5,1.2,0.7,1.9,0.7c0.9,0,1.7-0.4,2.3-1.1
			c20.9-25.7,32.4-58,32.4-91.2C314.8,91.2,250,26.4,170.3,26.4z"/>
		<linearGradient id="SVGID_7_" gradientUnits="userSpaceOnUse" x1="307.3516" y1="387.5959" x2="61.2125" y2="15.0386">
			<stop  offset="0" style="stop-color:#FF5529"/>
			<stop  offset="0.5656" style="stop-color:#FF9D29"/>
			<stop  offset="1" style="stop-color:#FFC529"/>
		</linearGradient>
		<path class="st6" d="M74.5,69.7c0.7,0,1.5-0.3,2-0.8c8.4-7.7,17.7-14.4,27.7-19.8c1.5-0.8,2-2.6,1.2-4.1c-0.8-1.5-2.6-2-4.1-1.2
			C91,49.5,81.2,56.4,72.5,64.5c-1.2,1.1-1.3,3-0.2,4.2C72.9,69.4,73.7,69.7,74.5,69.7z"/>
		<linearGradient id="SVGID_8_" gradientUnits="userSpaceOnUse" x1="257.6944" y1="420.4032" x2="11.5553" y2="47.8458">
			<stop  offset="0" style="stop-color:#FF5529"/>
			<stop  offset="0.5656" style="stop-color:#FF9D29"/>
			<stop  offset="1" style="stop-color:#FFC529"/>
		</linearGradient>
		<path class="st7" d="M256.3,279.4c-24.7,19.6-54.5,30-86.1,30c-76.4,0-138.5-62.1-138.5-138.5c0-29.6,9.2-57.9,26.6-81.7
			c1-1.3,0.7-3.2-0.6-4.2c-1.3-1-3.2-0.7-4.2,0.6c-18.2,24.9-27.8,54.3-27.8,85.2c0,79.7,64.8,144.5,144.5,144.5
			c33,0,64-10.8,89.8-31.3c1.3-1,1.5-2.9,0.5-4.2C259.5,278.6,257.6,278.4,256.3,279.4z"/>
		<linearGradient id="SVGID_9_" gradientUnits="userSpaceOnUse" x1="302.6992" y1="390.6697" x2="56.5601" y2="18.1123">
			<stop  offset="0" style="stop-color:#FF5529"/>
			<stop  offset="0.3339" style="stop-color:#FF8029"/>
			<stop  offset="0.5656" style="stop-color:#FF9D29"/>
			<stop  offset="1" style="stop-color:#FFC529"/>
		</linearGradient>
		<path class="st8" d="M113.7,89.7c-1.6,0.9-2.6,2.6-2.6,4.5v157.7c0,1.8,1,3.6,2.6,4.5c0.8,0.5,1.7,0.7,2.6,0.7
			c0.9,0,1.8-0.2,2.6-0.7l137.3-78.8c1.6-0.9,2.6-2.6,2.6-4.5s-1-3.6-2.6-4.5L118.9,89.7C117.3,88.8,115.3,88.8,113.7,89.7z
			 M121.5,103.1L243.2,173l-121.7,69.9V103.1z"/>
	</g>
</g>
</svg>
