<?xml version="1.0" encoding="utf-8"?>
<!-- Generator: Adobe Illustrator 23.0.1, SVG Export Plug-In . SVG Version: 6.00 Build 0)  -->
<svg version="1.1" xmlns="http://www.w3.org/2000/svg" xmlns:xlink="http://www.w3.org/1999/xlink" x="0px" y="0px"
	 viewBox="0 0 341.7 402" style="enable-background:new 0 0 341.7 402;" xml:space="preserve">
<style type="text/css">
	.st0{fill:url(#SVGID_1_);}
	.st1{fill:url(#SVGID_2_);}
	.st2{fill:url(#SVGID_3_);}
	.st3{fill:url(#SVGID_4_);}
	.st4{fill:url(#SVGID_5_);}
	.st5{fill:url(#SVGID_6_);}
	.st6{fill:url(#SVGID_7_);}
	.st7{fill:url(#SVGID_8_);}
	.st8{fill:url(#SVGID_9_);}
	.st9{fill:url(#SVGID_10_);}
	.st10{fill:url(#SVGID_11_);}
	.st11{fill:url(#SVGID_12_);}
	.st12{fill:url(#SVGID_13_);}
	.st13{fill:url(#SVGID_14_);}
	.st14{fill:url(#SVGID_15_);}
	.st15{fill:url(#SVGID_16_);}
	.st16{fill:url(#SVGID_17_);}
	.st17{fill:url(#SVGID_18_);}
	.st18{fill:url(#SVGID_19_);}
	.st19{fill:url(#SVGID_20_);}
</style>
<g id="Layer_1">
</g>
<g id="Layer_2">
	<g>
		<g>
			<g>
				<linearGradient id="SVGID_1_" gradientUnits="userSpaceOnUse" x1="286.0031" y1="401.7003" x2="39.8641" y2="29.1429">
					<stop  offset="0" style="stop-color:#FF5529"/>
					<stop  offset="0.5656" style="stop-color:#FF9D29"/>
					<stop  offset="1" style="stop-color:#FFC529"/>
				</linearGradient>
				<path class="st0" d="M148.3,188.5h-28.1v-22.2h8v2.8l15.3,0c0.5,0,0.8-0.1,1-0.2c0,0,0.3-0.3,0.3-1.6c0-1-0.1-1.5-0.2-1.7
					c-0.1-0.2-0.1-0.2-0.1-0.2c-0.1,0-0.3-0.1-0.9-0.1h-23.3v-7.5h25.8c1.8,0,3.4,0.5,4.7,1.4c1.4,1,2.1,2.7,2.1,5v5.5
					c0,0.6-0.1,1.1-0.2,1.5c1.5,1,2.2,2.4,2.2,4.3v7.3C154.6,186.5,152.3,188.5,148.3,188.5z M122.1,186.5h26.1c3.8,0,4.4-2,4.4-3.7
					v-7.2c0-1.4-0.6-2.3-2-2.9l-1.1-0.5l0.7-1c0.2-0.3,0.3-0.8,0.3-1.4v-5.5c0-1.6-0.4-2.8-1.3-3.4c-0.9-0.7-2.1-1-3.5-1h-23.8v3.5
					h21.3c0.7,0,1.2,0.1,1.7,0.2c0.4,0.1,1,0.5,1.3,1.4c0.2,0.5,0.3,1.3,0.3,2.4c0,1.5-0.3,2.4-0.8,3c-0.6,0.6-1.4,0.9-2.4,0.9
					l-17.3,0v-2.8h-4V186.5z M145.5,183.1h-19.3v-8.4h19.3c1.4,0,2.1,0.6,2.5,1.1c0.5,0.7,0.8,1.7,0.8,3.3c0,1.6-0.3,2.6-0.8,3.1
					l0,0C147.4,182.8,146.5,183.1,145.5,183.1z M128.1,181.1h17.3c0.5,0,0.8-0.1,1-0.3c0,0,0.3-0.3,0.3-1.8c0-1.5-0.3-2-0.3-2.1
					c-0.1-0.1-0.3-0.3-1-0.3h-17.3V181.1z"/>
			</g>
			<g>
				<linearGradient id="SVGID_2_" gradientUnits="userSpaceOnUse" x1="311.4353" y1="384.8979" x2="65.2963" y2="12.3405">
					<stop  offset="0" style="stop-color:#FF5529"/>
					<stop  offset="0.5656" style="stop-color:#FF9D29"/>
					<stop  offset="1" style="stop-color:#FFC529"/>
				</linearGradient>
				<path class="st1" d="M163.1,188.5h-8v-22.2h8v2.8h6.5c2.7,0,5.7,0,8.8,0l1,0l0.1,7.5h-16.4V188.5z M157.1,186.5h4v-11.9h16.3
					l0-3.5c-2.7,0-5.3,0-7.8,0h-8.5v-2.8h-4V186.5z M188,165.3h-32.9v-7.5H188V165.3z M157.1,163.3H186v-3.5h-28.9V163.3z"/>
			</g>
			<g>
				<linearGradient id="SVGID_3_" gradientUnits="userSpaceOnUse" x1="325.9897" y1="375.2822" x2="79.8507" y2="2.7248">
					<stop  offset="0" style="stop-color:#FF5529"/>
					<stop  offset="0.5656" style="stop-color:#FF9D29"/>
					<stop  offset="1" style="stop-color:#FFC529"/>
				</linearGradient>
				<path class="st2" d="M196.5,188.5h-8v-30.7h8V188.5z M190.5,186.5h4v-26.7h-4V186.5z"/>
			</g>
			<g>
				<linearGradient id="SVGID_4_" gradientUnits="userSpaceOnUse" x1="345.7383" y1="362.2349" x2="99.5992" y2="-10.3225">
					<stop  offset="0" style="stop-color:#FF5529"/>
					<stop  offset="0.5656" style="stop-color:#FF9D29"/>
					<stop  offset="1" style="stop-color:#FFC529"/>
				</linearGradient>
				<path class="st3" d="M218.2,188.5h-8v-21.6h8V188.5z M212.2,186.5h4v-17.6h-4V186.5z M231.5,165.9h-34.5v-8h34.5V165.9z
					 M198.9,163.9h30.5v-4h-30.5V163.9z"/>
			</g>
		</g>
		<linearGradient id="SVGID_5_" gradientUnits="userSpaceOnUse" x1="312.0186" y1="384.5126" x2="65.8795" y2="11.9552">
			<stop  offset="0" style="stop-color:#FF5529"/>
			<stop  offset="0.5656" style="stop-color:#FF9D29"/>
			<stop  offset="1" style="stop-color:#FFC529"/>
		</linearGradient>
		<path class="st4" d="M170.9,0C76.7,0,0,76.7,0,170.9s76.7,170.9,170.9,170.9s170.9-76.7,170.9-170.9S265.1,0,170.9,0z
			 M170.9,328.7C83.8,328.7,13,257.9,13,170.9C13,83.8,83.8,13,170.9,13s157.9,70.8,157.9,157.9
			C328.7,257.9,257.9,328.7,170.9,328.7z"/>
		<linearGradient id="SVGID_6_" gradientUnits="userSpaceOnUse" x1="387.9709" y1="334.3328" x2="141.8319" y2="-38.2246">
			<stop  offset="0" style="stop-color:#FF5529"/>
			<stop  offset="0.5656" style="stop-color:#FF9D29"/>
			<stop  offset="1" style="stop-color:#FFC529"/>
		</linearGradient>
		<path class="st5" d="M170.3,26.4c-13.9,0-27.6,2-40.7,5.8c-1.6,0.5-2.5,2.1-2,3.7c0.5,1.6,2.1,2.5,3.7,2c12.6-3.7,25.8-5.6,39-5.6
			c76.4,0,138.5,62.1,138.5,138.5c0,31.8-11,62.8-31,87.4c-1,1.3-0.9,3.2,0.4,4.2c0.6,0.5,1.2,0.7,1.9,0.7c0.9,0,1.7-0.4,2.3-1.1
			c20.9-25.7,32.4-58,32.4-91.2C314.8,91.2,250,26.4,170.3,26.4z"/>
		<linearGradient id="SVGID_7_" gradientUnits="userSpaceOnUse" x1="307.3516" y1="387.5959" x2="61.2125" y2="15.0386">
			<stop  offset="0" style="stop-color:#FF5529"/>
			<stop  offset="0.5656" style="stop-color:#FF9D29"/>
			<stop  offset="1" style="stop-color:#FFC529"/>
		</linearGradient>
		<path class="st6" d="M74.5,69.7c0.7,0,1.5-0.3,2-0.8c8.4-7.7,17.7-14.4,27.7-19.8c1.5-0.8,2-2.6,1.2-4.1c-0.8-1.5-2.6-2-4.1-1.2
			C91,49.5,81.2,56.4,72.5,64.5c-1.2,1.1-1.3,3-0.2,4.2C72.9,69.4,73.7,69.7,74.5,69.7z"/>
		<linearGradient id="SVGID_8_" gradientUnits="userSpaceOnUse" x1="257.6944" y1="420.4032" x2="11.5553" y2="47.8458">
			<stop  offset="0" style="stop-color:#FF5529"/>
			<stop  offset="0.5656" style="stop-color:#FF9D29"/>
			<stop  offset="1" style="stop-color:#FFC529"/>
		</linearGradient>
		<path class="st7" d="M256.3,279.4c-24.7,19.6-54.5,30-86.1,30c-76.4,0-138.5-62.1-138.5-138.5c0-29.6,9.2-57.9,26.6-81.7
			c1-1.3,0.7-3.2-0.6-4.2c-1.3-1-3.2-0.7-4.2,0.6c-18.2,24.9-27.8,54.3-27.8,85.2c0,79.7,64.8,144.5,144.5,144.5
			c33,0,64-10.8,89.8-31.3c1.3-1,1.5-2.9,0.5-4.2C259.5,278.6,257.6,278.4,256.3,279.4z"/>
		<linearGradient id="SVGID_9_" gradientUnits="userSpaceOnUse" x1="302.6992" y1="390.6697" x2="56.5601" y2="18.1123">
			<stop  offset="0" style="stop-color:#FF5529"/>
			<stop  offset="0.3339" style="stop-color:#FF8029"/>
			<stop  offset="0.5656" style="stop-color:#FF9D29"/>
			<stop  offset="1" style="stop-color:#FFC529"/>
		</linearGradient>
		<path class="st8" d="M113.7,89.7c-1.6,0.9-2.6,2.6-2.6,4.5v157.7c0,1.8,1,3.6,2.6,4.5c0.8,0.5,1.7,0.7,2.6,0.7
			c0.9,0,1.8-0.2,2.6-0.7l137.3-78.8c1.6-0.9,2.6-2.6,2.6-4.5s-1-3.6-2.6-4.5L118.9,89.7C117.3,88.8,115.3,88.8,113.7,89.7z
			 M121.5,103.1L243.2,173l-121.7,69.9V103.1z"/>
		<linearGradient id="SVGID_10_" gradientUnits="userSpaceOnUse" x1="164.8704" y1="481.7296" x2="-81.2686" y2="109.1722">
			<stop  offset="0" style="stop-color:#FF5529"/>
			<stop  offset="0.5656" style="stop-color:#FF9D29"/>
			<stop  offset="1" style="stop-color:#FFC529"/>
		</linearGradient>
		<path class="st9" d="M92.9,351.6c-0.9-0.9-1.8-1.5-2.9-1.9c-1-0.4-2.6-0.5-4.6-0.5h-8.1v21.5h8.3c1.8,0,3.3-0.2,4.4-0.6
			s2.1-1,2.9-1.8c0.8-0.8,1.5-1.9,2-3.3s0.8-3,0.8-4.8c0-2.1-0.2-3.8-0.8-5.2C94.5,353.6,93.8,352.5,92.9,351.6z M90.7,363.7
			c-0.3,0.9-0.6,1.6-1,2.1c-0.4,0.4-0.9,0.8-1.6,1c-0.6,0.2-1.7,0.3-3.1,0.3h-3.3v-14.2h2c1.8,0,3,0.1,3.6,0.2
			c0.8,0.2,1.5,0.5,2.1,1c0.6,0.5,1,1.2,1.3,2.2c0.3,0.9,0.4,2.2,0.4,3.8C91.1,361.5,91,362.7,90.7,363.7z"/>
		<linearGradient id="SVGID_11_" gradientUnits="userSpaceOnUse" x1="192.8047" y1="463.2741" x2="-53.3344" y2="90.7168">
			<stop  offset="0" style="stop-color:#FF5529"/>
			<stop  offset="0.5656" style="stop-color:#FF9D29"/>
			<stop  offset="1" style="stop-color:#FFC529"/>
		</linearGradient>
		<path class="st10" d="M126.5,349.2l-8.6,21.5h4.7l1.8-4.9h8.8l1.9,4.9h4.8l-8.8-21.5H126.5z M125.8,362.2l3-8l3,8H125.8z"/>
		<linearGradient id="SVGID_12_" gradientUnits="userSpaceOnUse" x1="225.6635" y1="441.5652" x2="-20.4755" y2="69.0078">
			<stop  offset="0" style="stop-color:#FF5529"/>
			<stop  offset="0.5656" style="stop-color:#FF9D29"/>
			<stop  offset="1" style="stop-color:#FFC529"/>
		</linearGradient>
		<polygon class="st11" points="176.3,363.5 167.3,349.2 163,349.2 163,370.7 167.1,370.7 167.1,356.7 176,370.7 180.5,370.7 
			180.5,349.2 176.3,349.2 		"/>
		<linearGradient id="SVGID_13_" gradientUnits="userSpaceOnUse" x1="255.8282" y1="421.6361" x2="9.6892" y2="49.0787">
			<stop  offset="0" style="stop-color:#FF5529"/>
			<stop  offset="0.5656" style="stop-color:#FF9D29"/>
			<stop  offset="1" style="stop-color:#FFC529"/>
		</linearGradient>
		<path class="st12" d="M218,366.2c-0.9,0.7-1.9,1.1-3,1.1c-1.6,0-2.9-0.6-3.9-1.7s-1.5-3.1-1.5-5.8c0-2.6,0.5-4.5,1.5-5.6
			c1-1.1,2.4-1.7,4-1.7c1.1,0,2.1,0.3,3,0.9c0.8,0.6,1.4,1.5,1.7,2.7l4.4-1c-0.6-1.9-1.4-3.3-2.6-4.3c-1.7-1.3-3.7-2-6.2-2
			c-3,0-5.4,0.9-7.2,2.7c-2.1,2.1-3.1,4.9-3.1,8.6c0,3.5,1,6.2,3.1,8.3c1.8,1.8,4.1,2.7,7,2.7c2.3,0,4.2-0.6,5.8-1.7
			c1.6-1.1,2.7-2.9,3.4-5.3l-4.3-1.3C219.5,364.3,218.9,365.5,218,366.2z"/>
		<linearGradient id="SVGID_14_" gradientUnits="userSpaceOnUse" x1="284.8566" y1="402.4578" x2="38.7175" y2="29.9004">
			<stop  offset="0" style="stop-color:#FF5529"/>
			<stop  offset="0.5656" style="stop-color:#FF9D29"/>
			<stop  offset="1" style="stop-color:#FFC529"/>
		</linearGradient>
		<polygon class="st13" points="264.9,352.8 264.9,349.2 248.6,349.2 248.6,370.7 265.3,370.7 265.3,367 253,367 253,361.2 
			264.1,361.2 264.1,357.6 253,357.6 253,352.8 		"/>
		<linearGradient id="SVGID_15_" gradientUnits="userSpaceOnUse" x1="141.5148" y1="497.16" x2="-104.6243" y2="124.6027">
			<stop  offset="0" style="stop-color:#FF5529"/>
			<stop  offset="0.5656" style="stop-color:#FF9D29"/>
			<stop  offset="1" style="stop-color:#FFC529"/>
		</linearGradient>
		<path class="st14" d="M77.3,389.9c-1-0.6-2.6-1.1-4.8-1.6c-2.1-0.5-3.5-0.9-4-1.3c-0.6-0.4-0.9-0.9-0.9-1.5c0-0.6,0.3-1.1,1-1.5
			s1.6-0.6,2.8-0.6c1.2,0,2.1,0.2,2.8,0.7s1.1,1.3,1.3,2.4l4.4-0.2c-0.1-2.1-0.9-3.7-2.3-4.8s-3.5-1.7-6.1-1.7
			c-1.7,0-3.2,0.2-4.3,0.7c-1.2,0.5-2.1,1.2-2.8,2.1s-1,2-1,3.2c0,1,0.3,1.9,0.8,2.8c0.5,0.9,1.2,1.6,2.1,2.1c0.9,0.5,2.3,1,4.2,1.5
			c2.1,0.5,3.4,0.9,4,1.1c0.5,0.2,1,0.5,1.2,0.8s0.4,0.8,0.4,1.2c0,0.8-0.4,1.5-1.2,2.1c-0.8,0.6-1.8,0.8-3.2,0.8
			c-2.7,0-4.3-1.4-4.8-4.1l-4.3,0.4c0.6,4.9,3.6,7.4,9,7.4c3.1,0,5.3-0.6,6.7-1.9c1.4-1.3,2.2-2.8,2.2-4.7c0-1.3-0.3-2.4-0.8-3.3
			C79,391.2,78.2,390.5,77.3,389.9z"/>
		<linearGradient id="SVGID_16_" gradientUnits="userSpaceOnUse" x1="171.9981" y1="477.0205" x2="-74.1409" y2="104.4631">
			<stop  offset="0" style="stop-color:#FF5529"/>
			<stop  offset="0.5656" style="stop-color:#FF9D29"/>
			<stop  offset="1" style="stop-color:#FFC529"/>
		</linearGradient>
		<polygon class="st15" points="103.1,383.8 109.6,383.8 109.6,401.7 114.1,401.7 114.1,383.8 120.6,383.8 120.6,380.2 103.1,380.2 
					"/>
		<linearGradient id="SVGID_17_" gradientUnits="userSpaceOnUse" x1="199.3191" y1="458.9702" x2="-46.8199" y2="86.4128">
			<stop  offset="0" style="stop-color:#FF5529"/>
			<stop  offset="0.5656" style="stop-color:#FF9D29"/>
			<stop  offset="1" style="stop-color:#FFC529"/>
		</linearGradient>
		<path class="st16" d="M157.2,392.1c0,2.1-0.1,3.5-0.4,4.2c-0.2,0.6-0.7,1.2-1.3,1.5c-0.6,0.4-1.5,0.5-2.5,0.5
			c-1.2,0-2.2-0.3-2.9-0.8s-1.2-1.2-1.4-2.2c-0.1-0.5-0.2-1.7-0.2-3.5v-11.6h-4.4v11.5c0,3.2,0.3,5.4,0.9,6.6
			c0.6,1.2,1.5,2.1,2.8,2.8c1.3,0.7,3.1,1,5.4,1c2.2,0,4-0.4,5.3-1.2c1.3-0.8,2.2-1.8,2.6-3.1c0.4-1.3,0.6-3.4,0.6-6.2v-11.3h-4.4
			V392.1z"/>
		<linearGradient id="SVGID_18_" gradientUnits="userSpaceOnUse" x1="226.9147" y1="440.7385" x2="-19.2243" y2="68.1811">
			<stop  offset="0" style="stop-color:#FF5529"/>
			<stop  offset="0.5656" style="stop-color:#FF9D29"/>
			<stop  offset="1" style="stop-color:#FFC529"/>
		</linearGradient>
		<path class="st17" d="M202.5,382.6c-0.9-0.9-1.8-1.5-2.9-1.9c-1-0.4-2.6-0.5-4.6-0.5h-8.1v21.5h8.3c1.8,0,3.3-0.2,4.4-0.6
			s2.1-1,2.9-1.8c0.8-0.8,1.5-1.9,2-3.3s0.8-3,0.8-4.8c0-2.1-0.2-3.8-0.8-5.2C204.1,384.6,203.4,383.5,202.5,382.6z M200.3,394.7
			c-0.3,0.9-0.6,1.6-1,2.1c-0.4,0.4-0.9,0.8-1.6,1c-0.6,0.2-1.7,0.3-3.1,0.3h-3.3v-14.2h2c1.8,0,3,0.1,3.6,0.2
			c0.8,0.2,1.5,0.5,2.1,1c0.6,0.5,1,1.2,1.3,2.2c0.3,0.9,0.4,2.2,0.4,3.8C200.8,392.5,200.6,393.7,200.3,394.7z"/>
		<linearGradient id="SVGID_19_" gradientUnits="userSpaceOnUse" x1="253.2355" y1="423.349" x2="7.0965" y2="50.7916">
			<stop  offset="0" style="stop-color:#FF5529"/>
			<stop  offset="0.5656" style="stop-color:#FF9D29"/>
			<stop  offset="1" style="stop-color:#FFC529"/>
		</linearGradient>
		<rect x="229.6" y="380.2" class="st18" width="4.4" height="21.5"/>
		<linearGradient id="SVGID_20_" gradientUnits="userSpaceOnUse" x1="278.8945" y1="406.3968" x2="32.7555" y2="33.8394">
			<stop  offset="0" style="stop-color:#FF5529"/>
			<stop  offset="0.5656" style="stop-color:#FF9D29"/>
			<stop  offset="1" style="stop-color:#FFC529"/>
		</linearGradient>
		<path class="st19" d="M268.7,379.8c-2.2,0-4,0.4-5.5,1.2c-1.5,0.8-2.8,2-3.7,3.7c-0.9,1.7-1.4,3.8-1.4,6.3c0,3.5,1,6.3,3.1,8.3
			c1.8,1.8,4.4,2.7,7.5,2.7c3.2,0,5.7-0.9,7.5-2.7c2.1-2,3.1-4.8,3.1-8.4c0-3.6-1-6.3-3-8.2S271.8,379.8,268.7,379.8z M273.1,396.5
			c-1.1,1.2-2.6,1.8-4.3,1.8c-1.7,0-3.2-0.6-4.4-1.9c-1.2-1.2-1.8-3.1-1.8-5.6c0-2.5,0.6-4.4,1.7-5.6c1.1-1.2,2.6-1.8,4.4-1.8
			s3.3,0.6,4.4,1.8c1.1,1.2,1.7,3,1.7,5.5C274.8,393.4,274.2,395.3,273.1,396.5z"/>
	</g>
</g>
</svg>
