<svg width="64" height="43" viewBox="0 0 64 43" fill="none" xmlns="http://www.w3.org/2000/svg">
<path d="M61.3322 33.3482L33.2174 18.2055V15.1776C33.218 14.7098 33.3411 14.2504 33.5744 13.845C33.8077 13.4396 34.1431 13.1023 34.5471 12.8667C35.4877 12.3177 36.2682 11.5322 36.8114 10.5882C37.3546 9.64427 37.6414 8.57468 37.6435 7.48562V6.36442C37.6625 5.53556 37.5156 4.71127 37.2115 3.93998C36.9074 3.16868 36.4523 2.46594 35.8728 1.87302C35.2933 1.28011 34.6012 0.808991 33.837 0.487341C33.0729 0.165691 32.2522 0 31.4231 0C30.594 0 29.7733 0.165691 29.0092 0.487341C28.245 0.808991 27.5529 1.28011 26.9734 1.87302C26.3939 2.46594 25.9388 3.16868 25.6347 3.93998C25.3306 4.71127 25.1837 5.53556 25.2027 6.36442V7.4954C25.2027 7.81956 25.3315 8.13044 25.5607 8.35965C25.7899 8.58887 26.1008 8.71764 26.4249 8.71764C26.7491 8.71764 27.06 8.58887 27.2892 8.35965C27.5184 8.13044 27.6472 7.81956 27.6472 7.4954V6.36442C27.6323 5.85922 27.719 5.35619 27.9021 4.8851C28.0852 4.41401 28.3609 3.98445 28.713 3.62186C29.0651 3.25927 29.4864 2.97102 29.9519 2.77419C30.4174 2.57735 30.9177 2.47593 31.4231 2.47593C31.9285 2.47593 32.4288 2.57735 32.8943 2.77419C33.3598 2.97102 33.7811 3.25927 34.1332 3.62186C34.4853 3.98445 34.761 4.41401 34.9441 4.8851C35.1272 5.35619 35.2139 5.85922 35.199 6.36442V7.4954C35.1974 8.15557 35.0229 8.80382 34.693 9.37564C34.363 9.94745 33.8891 10.4229 33.3184 10.7547C32.5455 11.207 31.9041 11.8533 31.4576 12.6296C31.0111 13.4059 30.7751 14.2853 30.7729 15.1809V18.2088L2.66458 33.3482C1.6712 33.8834 0.884793 34.7347 0.429974 35.7673C-0.0248455 36.8 -0.122069 37.9548 0.15371 39.049C0.429488 40.1431 1.06249 41.1139 1.95243 41.8076C2.84237 42.5013 3.93834 42.8781 5.06669 42.8785H58.9333C60.0617 42.8781 61.1576 42.5013 62.0476 41.8076C62.9375 41.1139 63.5705 40.1431 63.8463 39.049C64.1221 37.9548 64.0248 36.8 63.57 35.7673C63.1152 34.7347 62.3288 33.8834 61.3354 33.3482H61.3322ZM58.93 40.434H5.06343C4.48033 40.4317 3.91457 40.2354 3.45527 39.8762C2.99598 39.5169 2.66927 39.0151 2.52662 38.4497C2.38397 37.8843 2.43348 37.2875 2.66735 36.7534C2.90122 36.2192 3.30617 35.778 3.81838 35.4994L31.9984 20.324L60.1784 35.4994C60.6906 35.778 61.0955 36.2192 61.3294 36.7534C61.5633 37.2875 61.6128 37.8843 61.4701 38.4497C61.3275 39.0151 61.0008 39.5169 60.5415 39.8762C60.0822 40.2354 59.5164 40.4317 58.9333 40.434H58.93Z" fill="url(#paint0_linear_14_7)"/>
<defs>
<linearGradient id="paint0_linear_14_7" x1="-6.08088e-07" y1="0.555833" x2="68.7827" y2="32.6184" gradientUnits="userSpaceOnUse">
<stop stop-color="#FF5C29"/>
<stop offset="1" stop-color="#FFBF29"/>
</linearGradient>
</defs>
</svg>
