<svg width="59" height="51" viewBox="0 0 59 51" fill="none" xmlns="http://www.w3.org/2000/svg">
<path d="M14.8315 0C6.65389 0.0199617 0 6.6805 0 14.8714C0 19.975 2.6549 24.7525 6.95996 27.4672L6.95331 39.6039C6.95331 40.9813 8.2242 42.1989 9.67475 42.1989H14.0663C13.707 46.1513 10.9989 48.7397 7.0997 48.7397V50.5562C11.997 50.5562 15.5036 47.1627 15.8895 42.1989H20.2478C21.6185 42.1989 22.6964 41.0611 22.7031 39.6039V27.5072C24.4397 26.4359 25.9502 24.9986 27.1079 23.3086L51.3746 15.5568V0H14.8315ZM49.5581 14.2327L26.1631 21.705L26.1697 21.7316C26.01 21.7981 25.8637 21.9112 25.7638 22.0709C24.6393 23.7677 23.1156 25.1983 21.3457 26.2097C20.9864 26.4159 20.82 26.8351 20.9132 27.2144H20.8865V39.6039C20.8799 39.9832 20.6603 40.3824 20.2478 40.3824H9.67475C9.23559 40.3824 8.76317 39.9832 8.76317 39.6039L8.77647 27.2144H8.74321C8.86298 26.8218 8.69663 26.3827 8.33066 26.1697C4.31172 23.8409 1.81651 19.5092 1.81651 14.8714C1.81651 7.68524 7.65197 1.83647 14.8315 1.81651H49.5581V14.2327Z" fill="url(#paint0_linear)"/>
<path d="M15.2108 23.4616C10.3348 23.4616 6.36777 19.4945 6.36777 14.6179C6.36777 9.74195 10.3341 5.7749 15.2108 5.7749C20.0874 5.7749 24.0538 9.74195 24.0538 14.6179C24.0531 19.4945 20.0874 23.4616 15.2108 23.4616ZM15.2108 7.59075C11.3362 7.59075 8.18361 10.7434 8.18361 14.6179C8.18361 18.4931 11.3362 21.6458 15.2108 21.6458C19.086 21.6458 22.2386 18.4931 22.2386 14.6179C22.2379 10.744 19.086 7.59075 15.2108 7.59075Z" fill="url(#paint1_linear)"/>
<path d="M58.0924 4.10131H54.2804C53.7794 4.10131 53.3728 3.69476 53.3728 3.19372C53.3728 2.69269 53.7794 2.28613 54.2804 2.28613H58.0924C58.5934 2.28613 59 2.69269 59 3.19372C59 3.69476 58.5934 4.10131 58.0924 4.10131Z" fill="url(#paint2_linear)"/>
<path d="M58.0924 8.67651H54.2804C53.7794 8.67651 53.3728 8.26996 53.3728 7.76892C53.3728 7.26788 53.7794 6.86133 54.2804 6.86133H58.0924C58.5934 6.86133 59 7.26722 59 7.76892C59 8.26929 58.5934 8.67651 58.0924 8.67651Z" fill="url(#paint3_linear)"/>
<path d="M58.0924 13.2512H54.2804C53.7794 13.2512 53.3728 12.8453 53.3728 12.3436C53.3728 11.8419 53.7794 11.436 54.2804 11.436H58.0924C58.5934 11.436 59 11.8419 59 12.3436C59 12.8447 58.5934 13.2512 58.0924 13.2512Z" fill="url(#paint4_linear)"/>
<defs>
<linearGradient id="paint0_linear" x1="-4.8813e-07" y1="0.65536" x2="61.0613" y2="20.0338" gradientUnits="userSpaceOnUse">
<stop stop-color="#FF5C29"/>
<stop offset="1" stop-color="#FFBF29"/>
</linearGradient>
<linearGradient id="paint1_linear" x1="6.36777" y1="6.00417" x2="27.4496" y2="12.5879" gradientUnits="userSpaceOnUse">
<stop stop-color="#FF5C29"/>
<stop offset="1" stop-color="#FFBF29"/>
</linearGradient>
<linearGradient id="paint2_linear" x1="53.3728" y1="2.30966" x2="57.1727" y2="5.98864" gradientUnits="userSpaceOnUse">
<stop stop-color="#FF5C29"/>
<stop offset="1" stop-color="#FFBF29"/>
</linearGradient>
<linearGradient id="paint3_linear" x1="53.3728" y1="6.88486" x2="57.1727" y2="10.5638" gradientUnits="userSpaceOnUse">
<stop stop-color="#FF5C29"/>
<stop offset="1" stop-color="#FFBF29"/>
</linearGradient>
<linearGradient id="paint4_linear" x1="53.3728" y1="11.4596" x2="57.1727" y2="15.1385" gradientUnits="userSpaceOnUse">
<stop stop-color="#FF5C29"/>
<stop offset="1" stop-color="#FFBF29"/>
</linearGradient>
</defs>
</svg>
