<svg width="54" height="48" viewBox="0 0 54 48" fill="none" xmlns="http://www.w3.org/2000/svg">
<mask id="path-1-outside-1" maskUnits="userSpaceOnUse" x="0" y="0" width="54" height="48" fill="black">
<rect fill="white" width="54" height="48"/>
<path d="M1.49137 1.00266C1.35135 1.02938 1.22527 1.1047 1.13539 1.21533C1.0455 1.32596 0.997582 1.46479 1.00009 1.60731V28.2119C1.00011 28.3722 1.06382 28.526 1.17721 28.6394C1.2906 28.7528 1.44438 28.8165 1.60474 28.8165H16.1163C16.2767 28.8165 16.4305 28.7528 16.5439 28.6394C16.6572 28.526 16.721 28.3722 16.721 28.2119V1.60731C16.721 1.44695 16.6572 1.29317 16.5439 1.17978C16.4305 1.06639 16.2767 1.00268 16.1163 1.00266H1.60474C1.56704 0.999112 1.52908 0.999112 1.49137 1.00266ZM19.7064 1.00266C19.5527 1.0123 19.4085 1.08024 19.3031 1.1926C19.1978 1.30497 19.1393 1.45329 19.1396 1.60731V28.2119C19.1396 28.3722 19.2033 28.526 19.3167 28.6394C19.4301 28.7528 19.5839 28.8165 19.7442 28.8165H34.2558C34.4161 28.8165 34.5699 28.7528 34.6833 28.6394C34.7967 28.526 34.8604 28.3722 34.8604 28.2119V1.60731C34.8629 1.46479 34.815 1.32596 34.7251 1.21533C34.6353 1.1047 34.5092 1.02938 34.3692 1.00266C34.3315 0.999112 34.2935 0.999112 34.2558 1.00266H19.7442C19.7316 1.00227 19.719 1.00227 19.7064 1.00266ZM37.8459 1.00266C37.6922 1.0123 37.5479 1.08024 37.4426 1.1926C37.3372 1.30497 37.2787 1.45329 37.279 1.60731V28.2119C37.279 28.3722 37.3428 28.526 37.4561 28.6394C37.5695 28.7528 37.7233 28.8165 37.8837 28.8165H52.3953C52.5556 28.8165 52.7094 28.7528 52.8228 28.6394C52.9362 28.526 52.9999 28.3722 52.9999 28.2119V1.60731C53.0024 1.46479 52.9545 1.32596 52.8646 1.21533C52.7747 1.1047 52.6486 1.02938 52.5086 1.00266C52.4709 0.999112 52.433 0.999112 52.3953 1.00266H37.8837C37.8711 1.00227 37.8585 1.00227 37.8459 1.00266ZM2.20939 2.21196H15.5117V27.6072H2.20939V2.21196ZM20.3489 2.21196H33.6511V27.6072H20.3489V2.21196ZM38.4883 2.21196H51.7906V27.6072H38.4883V2.21196ZM5.23264 13.0956C4.23798 13.0956 3.41869 13.9149 3.41869 14.9096C3.41869 15.9042 4.23798 16.7235 5.23264 16.7235C6.22729 16.7235 7.04658 15.9042 7.04658 14.9096C7.04658 13.9149 6.22729 13.0956 5.23264 13.0956ZM23.3721 13.0956C22.3775 13.0956 21.5582 13.9149 21.5582 14.9096C21.5582 15.9042 22.3775 16.7235 23.3721 16.7235C24.3668 16.7235 25.1861 15.9042 25.1861 14.9096C25.1861 13.9149 24.3668 13.0956 23.3721 13.0956ZM41.5116 13.0956C40.5169 13.0956 39.6976 13.9149 39.6976 14.9096C39.6976 15.9042 40.5169 16.7235 41.5116 16.7235C42.5062 16.7235 43.3255 15.9042 43.3255 14.9096C43.3255 13.9149 42.5062 13.0956 41.5116 13.0956ZM5.23264 14.3049C5.57374 14.3049 5.83729 14.5685 5.83729 14.9096C5.83729 15.2507 5.57374 15.5142 5.23264 15.5142C4.89154 15.5142 4.62799 15.2507 4.62799 14.9096C4.62799 14.5685 4.89154 14.3049 5.23264 14.3049ZM23.3721 14.3049C23.7132 14.3049 23.9768 14.5685 23.9768 14.9096C23.9768 15.2507 23.7132 15.5142 23.3721 15.5142C23.031 15.5142 22.7675 15.2507 22.7675 14.9096C22.7675 14.5685 23.031 14.3049 23.3721 14.3049ZM41.5116 14.3049C41.8527 14.3049 42.1162 14.5685 42.1162 14.9096C42.1162 15.2507 41.8527 15.5142 41.5116 15.5142C41.1705 15.5142 40.9069 15.2507 40.9069 14.9096C40.9069 14.5685 41.1705 14.3049 41.5116 14.3049ZM40.3023 31.2351C37.2845 31.2351 34.7029 32.9661 33.3866 35.4677H28.2093C28.0489 35.4677 27.8952 35.5314 27.7818 35.6448C27.6684 35.7582 27.6047 35.9119 27.6046 36.0723V37.2816H26.3953V36.0723C26.3953 35.9119 26.3316 35.7582 26.2182 35.6448C26.1048 35.5314 25.9511 35.4677 25.7907 35.4677H22.1628C22.0024 35.4677 21.8487 35.5314 21.7353 35.6448C21.6219 35.7582 21.5582 35.9119 21.5582 36.0723V37.2816H20.3489V36.0723C20.3488 35.9119 20.2851 35.7582 20.1717 35.6448C20.0584 35.5314 19.9046 35.4677 19.7442 35.4677H16.1163C15.956 35.4677 15.8022 35.5314 15.6888 35.6448C15.5754 35.7582 15.5117 35.9119 15.5117 36.0723V37.2816H14.3024V36.0723C14.3024 35.9119 14.2386 35.7582 14.1253 35.6448C14.0119 35.5314 13.8581 35.4677 13.6977 35.4677H9.57855C9.49846 35.4658 9.41879 35.4799 9.34419 35.5091C9.26958 35.5383 9.20152 35.582 9.14396 35.6377L6.12071 38.661C6.0088 38.7742 5.94604 38.9269 5.94604 39.0861C5.94604 39.2453 6.0088 39.398 6.12071 39.5112L9.14396 42.5345C9.19994 42.5936 9.2673 42.6408 9.34198 42.6733C9.41665 42.7058 9.49712 42.7228 9.57855 42.7234H33.3866C34.7053 45.2172 37.2902 46.956 40.3023 46.956C44.6363 46.956 48.1627 43.4295 48.1627 39.0955C48.1627 34.7615 44.6363 31.2351 40.3023 31.2351ZM40.3023 32.4444C43.9828 32.4444 46.9534 35.415 46.9534 39.0955C46.9534 42.776 43.9828 45.7467 40.3023 45.7467C37.6171 45.7467 35.3081 44.139 34.2558 41.8543C34.2059 41.7516 34.1279 41.6652 34.0309 41.6051C33.934 41.5449 33.8219 41.5133 33.7078 41.5141H9.84309L7.42449 39.0955L9.82419 36.6769H13.0931V37.8862C13.0931 38.0466 13.1568 38.2004 13.2702 38.3138C13.3836 38.4272 13.5374 38.4909 13.6977 38.4909H16.1163C16.2767 38.4909 16.4305 38.4272 16.5439 38.3138C16.6572 38.2004 16.721 38.0466 16.721 37.8862V36.6769H19.1396V37.8862C19.1396 38.0466 19.2033 38.2004 19.3167 38.3138C19.4301 38.4272 19.5839 38.4909 19.7442 38.4909H22.1628C22.3232 38.4909 22.477 38.4272 22.5903 38.3138C22.7037 38.2004 22.7674 38.0466 22.7675 37.8862V36.6769H25.1861V37.8862C25.1861 38.0466 25.2498 38.2004 25.3632 38.3138C25.4766 38.4272 25.6303 38.4909 25.7907 38.4909H28.2093C28.3697 38.4909 28.5234 38.4272 28.6368 38.3138C28.7502 38.2004 28.8139 38.0466 28.8139 37.8862V36.6769H33.7078C33.824 36.6761 33.9375 36.6417 34.0346 36.5781C34.1318 36.5144 34.2086 36.4241 34.2558 36.3179C35.3081 34.0332 37.6171 32.4444 40.3023 32.4444ZM42.1162 36.0723C40.4537 36.0723 39.093 37.433 39.093 39.0955C39.093 40.758 40.4537 42.1188 42.1162 42.1188C43.7788 42.1188 45.1395 40.758 45.1395 39.0955C45.1395 37.433 43.7788 36.0723 42.1162 36.0723ZM42.1162 37.2816C43.1252 37.2816 43.9302 38.0866 43.9302 39.0955C43.9302 40.1045 43.1252 40.9095 42.1162 40.9095C41.1072 40.9095 40.3023 40.1045 40.3023 39.0955C40.3023 38.0866 41.1072 37.2816 42.1162 37.2816Z"/>
</mask>
<path d="M1.49137 1.00266C1.35135 1.02938 1.22527 1.1047 1.13539 1.21533C1.0455 1.32596 0.997582 1.46479 1.00009 1.60731V28.2119C1.00011 28.3722 1.06382 28.526 1.17721 28.6394C1.2906 28.7528 1.44438 28.8165 1.60474 28.8165H16.1163C16.2767 28.8165 16.4305 28.7528 16.5439 28.6394C16.6572 28.526 16.721 28.3722 16.721 28.2119V1.60731C16.721 1.44695 16.6572 1.29317 16.5439 1.17978C16.4305 1.06639 16.2767 1.00268 16.1163 1.00266H1.60474C1.56704 0.999112 1.52908 0.999112 1.49137 1.00266ZM19.7064 1.00266C19.5527 1.0123 19.4085 1.08024 19.3031 1.1926C19.1978 1.30497 19.1393 1.45329 19.1396 1.60731V28.2119C19.1396 28.3722 19.2033 28.526 19.3167 28.6394C19.4301 28.7528 19.5839 28.8165 19.7442 28.8165H34.2558C34.4161 28.8165 34.5699 28.7528 34.6833 28.6394C34.7967 28.526 34.8604 28.3722 34.8604 28.2119V1.60731C34.8629 1.46479 34.815 1.32596 34.7251 1.21533C34.6353 1.1047 34.5092 1.02938 34.3692 1.00266C34.3315 0.999112 34.2935 0.999112 34.2558 1.00266H19.7442C19.7316 1.00227 19.719 1.00227 19.7064 1.00266ZM37.8459 1.00266C37.6922 1.0123 37.5479 1.08024 37.4426 1.1926C37.3372 1.30497 37.2787 1.45329 37.279 1.60731V28.2119C37.279 28.3722 37.3428 28.526 37.4561 28.6394C37.5695 28.7528 37.7233 28.8165 37.8837 28.8165H52.3953C52.5556 28.8165 52.7094 28.7528 52.8228 28.6394C52.9362 28.526 52.9999 28.3722 52.9999 28.2119V1.60731C53.0024 1.46479 52.9545 1.32596 52.8646 1.21533C52.7747 1.1047 52.6486 1.02938 52.5086 1.00266C52.4709 0.999112 52.433 0.999112 52.3953 1.00266H37.8837C37.8711 1.00227 37.8585 1.00227 37.8459 1.00266ZM2.20939 2.21196H15.5117V27.6072H2.20939V2.21196ZM20.3489 2.21196H33.6511V27.6072H20.3489V2.21196ZM38.4883 2.21196H51.7906V27.6072H38.4883V2.21196ZM5.23264 13.0956C4.23798 13.0956 3.41869 13.9149 3.41869 14.9096C3.41869 15.9042 4.23798 16.7235 5.23264 16.7235C6.22729 16.7235 7.04658 15.9042 7.04658 14.9096C7.04658 13.9149 6.22729 13.0956 5.23264 13.0956ZM23.3721 13.0956C22.3775 13.0956 21.5582 13.9149 21.5582 14.9096C21.5582 15.9042 22.3775 16.7235 23.3721 16.7235C24.3668 16.7235 25.1861 15.9042 25.1861 14.9096C25.1861 13.9149 24.3668 13.0956 23.3721 13.0956ZM41.5116 13.0956C40.5169 13.0956 39.6976 13.9149 39.6976 14.9096C39.6976 15.9042 40.5169 16.7235 41.5116 16.7235C42.5062 16.7235 43.3255 15.9042 43.3255 14.9096C43.3255 13.9149 42.5062 13.0956 41.5116 13.0956ZM5.23264 14.3049C5.57374 14.3049 5.83729 14.5685 5.83729 14.9096C5.83729 15.2507 5.57374 15.5142 5.23264 15.5142C4.89154 15.5142 4.62799 15.2507 4.62799 14.9096C4.62799 14.5685 4.89154 14.3049 5.23264 14.3049ZM23.3721 14.3049C23.7132 14.3049 23.9768 14.5685 23.9768 14.9096C23.9768 15.2507 23.7132 15.5142 23.3721 15.5142C23.031 15.5142 22.7675 15.2507 22.7675 14.9096C22.7675 14.5685 23.031 14.3049 23.3721 14.3049ZM41.5116 14.3049C41.8527 14.3049 42.1162 14.5685 42.1162 14.9096C42.1162 15.2507 41.8527 15.5142 41.5116 15.5142C41.1705 15.5142 40.9069 15.2507 40.9069 14.9096C40.9069 14.5685 41.1705 14.3049 41.5116 14.3049ZM40.3023 31.2351C37.2845 31.2351 34.7029 32.9661 33.3866 35.4677H28.2093C28.0489 35.4677 27.8952 35.5314 27.7818 35.6448C27.6684 35.7582 27.6047 35.9119 27.6046 36.0723V37.2816H26.3953V36.0723C26.3953 35.9119 26.3316 35.7582 26.2182 35.6448C26.1048 35.5314 25.9511 35.4677 25.7907 35.4677H22.1628C22.0024 35.4677 21.8487 35.5314 21.7353 35.6448C21.6219 35.7582 21.5582 35.9119 21.5582 36.0723V37.2816H20.3489V36.0723C20.3488 35.9119 20.2851 35.7582 20.1717 35.6448C20.0584 35.5314 19.9046 35.4677 19.7442 35.4677H16.1163C15.956 35.4677 15.8022 35.5314 15.6888 35.6448C15.5754 35.7582 15.5117 35.9119 15.5117 36.0723V37.2816H14.3024V36.0723C14.3024 35.9119 14.2386 35.7582 14.1253 35.6448C14.0119 35.5314 13.8581 35.4677 13.6977 35.4677H9.57855C9.49846 35.4658 9.41879 35.4799 9.34419 35.5091C9.26958 35.5383 9.20152 35.582 9.14396 35.6377L6.12071 38.661C6.0088 38.7742 5.94604 38.9269 5.94604 39.0861C5.94604 39.2453 6.0088 39.398 6.12071 39.5112L9.14396 42.5345C9.19994 42.5936 9.2673 42.6408 9.34198 42.6733C9.41665 42.7058 9.49712 42.7228 9.57855 42.7234H33.3866C34.7053 45.2172 37.2902 46.956 40.3023 46.956C44.6363 46.956 48.1627 43.4295 48.1627 39.0955C48.1627 34.7615 44.6363 31.2351 40.3023 31.2351ZM40.3023 32.4444C43.9828 32.4444 46.9534 35.415 46.9534 39.0955C46.9534 42.776 43.9828 45.7467 40.3023 45.7467C37.6171 45.7467 35.3081 44.139 34.2558 41.8543C34.2059 41.7516 34.1279 41.6652 34.0309 41.6051C33.934 41.5449 33.8219 41.5133 33.7078 41.5141H9.84309L7.42449 39.0955L9.82419 36.6769H13.0931V37.8862C13.0931 38.0466 13.1568 38.2004 13.2702 38.3138C13.3836 38.4272 13.5374 38.4909 13.6977 38.4909H16.1163C16.2767 38.4909 16.4305 38.4272 16.5439 38.3138C16.6572 38.2004 16.721 38.0466 16.721 37.8862V36.6769H19.1396V37.8862C19.1396 38.0466 19.2033 38.2004 19.3167 38.3138C19.4301 38.4272 19.5839 38.4909 19.7442 38.4909H22.1628C22.3232 38.4909 22.477 38.4272 22.5903 38.3138C22.7037 38.2004 22.7674 38.0466 22.7675 37.8862V36.6769H25.1861V37.8862C25.1861 38.0466 25.2498 38.2004 25.3632 38.3138C25.4766 38.4272 25.6303 38.4909 25.7907 38.4909H28.2093C28.3697 38.4909 28.5234 38.4272 28.6368 38.3138C28.7502 38.2004 28.8139 38.0466 28.8139 37.8862V36.6769H33.7078C33.824 36.6761 33.9375 36.6417 34.0346 36.5781C34.1318 36.5144 34.2086 36.4241 34.2558 36.3179C35.3081 34.0332 37.6171 32.4444 40.3023 32.4444ZM42.1162 36.0723C40.4537 36.0723 39.093 37.433 39.093 39.0955C39.093 40.758 40.4537 42.1188 42.1162 42.1188C43.7788 42.1188 45.1395 40.758 45.1395 39.0955C45.1395 37.433 43.7788 36.0723 42.1162 36.0723ZM42.1162 37.2816C43.1252 37.2816 43.9302 38.0866 43.9302 39.0955C43.9302 40.1045 43.1252 40.9095 42.1162 40.9095C41.1072 40.9095 40.3023 40.1045 40.3023 39.0955C40.3023 38.0866 41.1072 37.2816 42.1162 37.2816Z" fill="url(#paint0_linear)"/>
<path d="M1.49137 1.00266C1.35135 1.02938 1.22527 1.1047 1.13539 1.21533C1.0455 1.32596 0.997582 1.46479 1.00009 1.60731V28.2119C1.00011 28.3722 1.06382 28.526 1.17721 28.6394C1.2906 28.7528 1.44438 28.8165 1.60474 28.8165H16.1163C16.2767 28.8165 16.4305 28.7528 16.5439 28.6394C16.6572 28.526 16.721 28.3722 16.721 28.2119V1.60731C16.721 1.44695 16.6572 1.29317 16.5439 1.17978C16.4305 1.06639 16.2767 1.00268 16.1163 1.00266H1.60474C1.56704 0.999112 1.52908 0.999112 1.49137 1.00266ZM19.7064 1.00266C19.5527 1.0123 19.4085 1.08024 19.3031 1.1926C19.1978 1.30497 19.1393 1.45329 19.1396 1.60731V28.2119C19.1396 28.3722 19.2033 28.526 19.3167 28.6394C19.4301 28.7528 19.5839 28.8165 19.7442 28.8165H34.2558C34.4161 28.8165 34.5699 28.7528 34.6833 28.6394C34.7967 28.526 34.8604 28.3722 34.8604 28.2119V1.60731C34.8629 1.46479 34.815 1.32596 34.7251 1.21533C34.6353 1.1047 34.5092 1.02938 34.3692 1.00266C34.3315 0.999112 34.2935 0.999112 34.2558 1.00266H19.7442C19.7316 1.00227 19.719 1.00227 19.7064 1.00266ZM37.8459 1.00266C37.6922 1.0123 37.5479 1.08024 37.4426 1.1926C37.3372 1.30497 37.2787 1.45329 37.279 1.60731V28.2119C37.279 28.3722 37.3428 28.526 37.4561 28.6394C37.5695 28.7528 37.7233 28.8165 37.8837 28.8165H52.3953C52.5556 28.8165 52.7094 28.7528 52.8228 28.6394C52.9362 28.526 52.9999 28.3722 52.9999 28.2119V1.60731C53.0024 1.46479 52.9545 1.32596 52.8646 1.21533C52.7747 1.1047 52.6486 1.02938 52.5086 1.00266C52.4709 0.999112 52.433 0.999112 52.3953 1.00266H37.8837C37.8711 1.00227 37.8585 1.00227 37.8459 1.00266ZM2.20939 2.21196H15.5117V27.6072H2.20939V2.21196ZM20.3489 2.21196H33.6511V27.6072H20.3489V2.21196ZM38.4883 2.21196H51.7906V27.6072H38.4883V2.21196ZM5.23264 13.0956C4.23798 13.0956 3.41869 13.9149 3.41869 14.9096C3.41869 15.9042 4.23798 16.7235 5.23264 16.7235C6.22729 16.7235 7.04658 15.9042 7.04658 14.9096C7.04658 13.9149 6.22729 13.0956 5.23264 13.0956ZM23.3721 13.0956C22.3775 13.0956 21.5582 13.9149 21.5582 14.9096C21.5582 15.9042 22.3775 16.7235 23.3721 16.7235C24.3668 16.7235 25.1861 15.9042 25.1861 14.9096C25.1861 13.9149 24.3668 13.0956 23.3721 13.0956ZM41.5116 13.0956C40.5169 13.0956 39.6976 13.9149 39.6976 14.9096C39.6976 15.9042 40.5169 16.7235 41.5116 16.7235C42.5062 16.7235 43.3255 15.9042 43.3255 14.9096C43.3255 13.9149 42.5062 13.0956 41.5116 13.0956ZM5.23264 14.3049C5.57374 14.3049 5.83729 14.5685 5.83729 14.9096C5.83729 15.2507 5.57374 15.5142 5.23264 15.5142C4.89154 15.5142 4.62799 15.2507 4.62799 14.9096C4.62799 14.5685 4.89154 14.3049 5.23264 14.3049ZM23.3721 14.3049C23.7132 14.3049 23.9768 14.5685 23.9768 14.9096C23.9768 15.2507 23.7132 15.5142 23.3721 15.5142C23.031 15.5142 22.7675 15.2507 22.7675 14.9096C22.7675 14.5685 23.031 14.3049 23.3721 14.3049ZM41.5116 14.3049C41.8527 14.3049 42.1162 14.5685 42.1162 14.9096C42.1162 15.2507 41.8527 15.5142 41.5116 15.5142C41.1705 15.5142 40.9069 15.2507 40.9069 14.9096C40.9069 14.5685 41.1705 14.3049 41.5116 14.3049ZM40.3023 31.2351C37.2845 31.2351 34.7029 32.9661 33.3866 35.4677H28.2093C28.0489 35.4677 27.8952 35.5314 27.7818 35.6448C27.6684 35.7582 27.6047 35.9119 27.6046 36.0723V37.2816H26.3953V36.0723C26.3953 35.9119 26.3316 35.7582 26.2182 35.6448C26.1048 35.5314 25.9511 35.4677 25.7907 35.4677H22.1628C22.0024 35.4677 21.8487 35.5314 21.7353 35.6448C21.6219 35.7582 21.5582 35.9119 21.5582 36.0723V37.2816H20.3489V36.0723C20.3488 35.9119 20.2851 35.7582 20.1717 35.6448C20.0584 35.5314 19.9046 35.4677 19.7442 35.4677H16.1163C15.956 35.4677 15.8022 35.5314 15.6888 35.6448C15.5754 35.7582 15.5117 35.9119 15.5117 36.0723V37.2816H14.3024V36.0723C14.3024 35.9119 14.2386 35.7582 14.1253 35.6448C14.0119 35.5314 13.8581 35.4677 13.6977 35.4677H9.57855C9.49846 35.4658 9.41879 35.4799 9.34419 35.5091C9.26958 35.5383 9.20152 35.582 9.14396 35.6377L6.12071 38.661C6.0088 38.7742 5.94604 38.9269 5.94604 39.0861C5.94604 39.2453 6.0088 39.398 6.12071 39.5112L9.14396 42.5345C9.19994 42.5936 9.2673 42.6408 9.34198 42.6733C9.41665 42.7058 9.49712 42.7228 9.57855 42.7234H33.3866C34.7053 45.2172 37.2902 46.956 40.3023 46.956C44.6363 46.956 48.1627 43.4295 48.1627 39.0955C48.1627 34.7615 44.6363 31.2351 40.3023 31.2351ZM40.3023 32.4444C43.9828 32.4444 46.9534 35.415 46.9534 39.0955C46.9534 42.776 43.9828 45.7467 40.3023 45.7467C37.6171 45.7467 35.3081 44.139 34.2558 41.8543C34.2059 41.7516 34.1279 41.6652 34.0309 41.6051C33.934 41.5449 33.8219 41.5133 33.7078 41.5141H9.84309L7.42449 39.0955L9.82419 36.6769H13.0931V37.8862C13.0931 38.0466 13.1568 38.2004 13.2702 38.3138C13.3836 38.4272 13.5374 38.4909 13.6977 38.4909H16.1163C16.2767 38.4909 16.4305 38.4272 16.5439 38.3138C16.6572 38.2004 16.721 38.0466 16.721 37.8862V36.6769H19.1396V37.8862C19.1396 38.0466 19.2033 38.2004 19.3167 38.3138C19.4301 38.4272 19.5839 38.4909 19.7442 38.4909H22.1628C22.3232 38.4909 22.477 38.4272 22.5903 38.3138C22.7037 38.2004 22.7674 38.0466 22.7675 37.8862V36.6769H25.1861V37.8862C25.1861 38.0466 25.2498 38.2004 25.3632 38.3138C25.4766 38.4272 25.6303 38.4909 25.7907 38.4909H28.2093C28.3697 38.4909 28.5234 38.4272 28.6368 38.3138C28.7502 38.2004 28.8139 38.0466 28.8139 37.8862V36.6769H33.7078C33.824 36.6761 33.9375 36.6417 34.0346 36.5781C34.1318 36.5144 34.2086 36.4241 34.2558 36.3179C35.3081 34.0332 37.6171 32.4444 40.3023 32.4444ZM42.1162 36.0723C40.4537 36.0723 39.093 37.433 39.093 39.0955C39.093 40.758 40.4537 42.1188 42.1162 42.1188C43.7788 42.1188 45.1395 40.758 45.1395 39.0955C45.1395 37.433 43.7788 36.0723 42.1162 36.0723ZM42.1162 37.2816C43.1252 37.2816 43.9302 38.0866 43.9302 39.0955C43.9302 40.1045 43.1252 40.9095 42.1162 40.9095C41.1072 40.9095 40.3023 40.1045 40.3023 39.0955C40.3023 38.0866 41.1072 37.2816 42.1162 37.2816Z" stroke="url(#paint1_linear)" mask="url(#path-1-outside-1)"/>
<defs>
<linearGradient id="paint0_linear" x1="1" y1="1.59573" x2="61.4772" y2="22.967" gradientUnits="userSpaceOnUse">
<stop stop-color="#FF5C29"/>
<stop offset="1" stop-color="#FFBF29"/>
</linearGradient>
<linearGradient id="paint1_linear" x1="1" y1="1.59573" x2="61.4772" y2="22.967" gradientUnits="userSpaceOnUse">
<stop stop-color="#FF5C29"/>
<stop offset="1" stop-color="#FFBF29"/>
</linearGradient>
</defs>
</svg>
