<svg width="44" height="44" viewBox="0 0 44 44" fill="none" xmlns="http://www.w3.org/2000/svg">
<g clip-path="url(#clip0)">
<path d="M4.58329 44C4.07729 44 3.66663 43.5893 3.66663 43.0833V15.8877C3.66663 12.2907 5.96746 9.13367 9.39213 8.03367L14.5915 6.36167C15.7336 5.995 16.5 4.94267 16.5 3.74367V0.916667C16.5 0.410667 16.9106 0 17.4166 0C17.9226 0 18.3333 0.410667 18.3333 0.916667V3.74367C18.3333 5.742 17.0555 7.49467 15.1543 8.107L9.95496 9.779C7.29113 10.6352 5.49996 13.09 5.49996 15.8877V43.0833C5.49996 43.5893 5.08929 44 4.58329 44Z" fill="url(#paint0_linear)"/>
<path d="M39.4167 44C38.9107 44 38.5 43.5893 38.5 43.0833V15.8877C38.5 13.09 36.7088 10.6352 34.045 9.779L28.8457 8.107C26.9445 7.49467 25.6667 5.742 25.6667 3.74367V0.916667C25.6667 0.410667 26.0774 0 26.5834 0C27.0894 0 27.5 0.410667 27.5 0.916667V3.74367C27.5 4.94267 28.2664 5.995 29.4085 6.36167L34.6079 8.03367C38.0325 9.13367 40.3333 12.2907 40.3333 15.8877V43.0833C40.3333 43.5893 39.9227 44 39.4167 44Z" fill="url(#paint1_linear)"/>
<path d="M10.0852 44C10.0485 44 10.0137 43.9981 9.97703 43.9945C9.4747 43.9358 9.11353 43.4811 9.1722 42.977C9.34087 41.5488 9.61953 40.1371 10.0027 38.7823C11.4914 33.4785 11.3117 27.291 9.52053 22.2328L9.2272 21.384C9.0622 20.9055 9.3152 20.383 9.79553 20.218C10.2685 20.0566 10.7965 20.306 10.9615 20.7845L11.253 21.6278C13.1615 27.0233 13.354 33.6233 11.7682 39.281C11.4107 40.5441 11.1504 41.8605 10.9945 43.1915C10.9395 43.6571 10.5435 44 10.0852 44Z" fill="url(#paint2_linear)"/>
<path d="M33.9148 44.0001C33.4565 44.0001 33.0605 43.6554 33.0055 43.1898C32.8497 41.8588 32.5893 40.5443 32.2318 39.2811C30.646 33.6234 30.8385 27.0216 32.7488 21.6206L33.0385 20.7828C33.2053 20.3043 33.7352 20.0568 34.2045 20.2163C34.6848 20.3813 34.936 20.9038 34.7728 21.3823L34.4813 22.2256C32.6883 27.2893 32.5105 33.4768 33.9973 38.7824C34.3805 40.1354 34.6592 41.5471 34.8278 42.9753C34.8847 43.4776 34.5253 43.9323 34.023 43.9928C33.9863 43.9983 33.9515 44.0001 33.9148 44.0001Z" fill="url(#paint3_linear)"/>
<path d="M22 36.6668C18.9677 36.6668 16.5 34.1991 16.5 31.1668C16.5 28.4571 20.735 21.4025 21.2153 20.6086C21.549 20.0605 22.451 20.0605 22.7828 20.6086C23.265 21.4025 27.5 28.4571 27.5 31.1668C27.5 34.1991 25.0323 36.6668 22 36.6668ZM22 22.8893C20.3427 25.7786 18.3333 29.746 18.3333 31.1668C18.3333 33.189 19.9778 34.8335 22 34.8335C24.0222 34.8335 25.6667 33.189 25.6667 31.1668C25.6667 29.746 23.6573 25.7786 22 22.8893Z" fill="url(#paint4_linear)"/>
</g>
<defs>
<linearGradient id="paint0_linear" x1="3.66663" y1="0.570371" x2="22.6487" y2="2.54643" gradientUnits="userSpaceOnUse">
<stop stop-color="#FF5C29"/>
<stop offset="1" stop-color="#FFBF29"/>
</linearGradient>
<linearGradient id="paint1_linear" x1="25.6667" y1="0.570371" x2="44.6487" y2="2.54643" gradientUnits="userSpaceOnUse">
<stop stop-color="#FF5C29"/>
<stop offset="1" stop-color="#FFBF29"/>
</linearGradient>
<linearGradient id="paint2_linear" x1="9.16595" y1="20.4779" x2="13.9542" y2="20.7081" gradientUnits="userSpaceOnUse">
<stop stop-color="#FF5C29"/>
<stop offset="1" stop-color="#FFBF29"/>
</linearGradient>
<linearGradient id="paint3_linear" x1="31.1658" y1="20.4769" x2="35.9533" y2="20.707" gradientUnits="userSpaceOnUse">
<stop stop-color="#FF5C29"/>
<stop offset="1" stop-color="#FFBF29"/>
</linearGradient>
<linearGradient id="paint4_linear" x1="16.5" y1="20.411" x2="30.2908" y2="23.2876" gradientUnits="userSpaceOnUse">
<stop stop-color="#FF5C29"/>
<stop offset="1" stop-color="#FFBF29"/>
</linearGradient>
<clipPath id="clip0">
<rect width="44" height="44" fill="white"/>
</clipPath>
</defs>
</svg>
