<svg width="49" height="47" viewBox="0 0 49 47" fill="none" xmlns="http://www.w3.org/2000/svg">
<path d="M8.98633 33.2318C6.04565 33.2318 3.6498 35.5163 3.6498 38.347C3.6498 41.1778 6.04565 43.4623 8.98633 43.4623C11.927 43.4623 14.3229 41.1778 14.3229 38.347C14.3229 35.5163 11.927 33.2318 8.98633 33.2318ZM8.98633 41.8441C6.96079 41.8441 5.32676 40.2706 5.32676 38.347C5.32676 36.4235 6.96079 34.85 8.98633 34.85C11.0119 34.85 12.6459 36.4235 12.6459 38.347C12.6459 40.2706 11.0119 41.8441 8.98633 41.8441Z" fill="url(#paint0_linear)" stroke="url(#paint1_linear)" stroke-width="0.3"/>
<path d="M0.849957 38.5224L0.850043 38.526C0.943615 42.4224 4.034 45.6121 7.98467 46.0855C8.08219 46.1237 8.18717 46.1417 8.29785 46.1417H28.484H35.6992H42.7217C45.7082 46.1417 48.15 43.8135 48.15 40.9389V12.204C48.15 9.32942 45.7082 7.00121 42.7217 7.00121H16.9377C16.1496 3.48225 12.8842 0.85 8.98633 0.85C4.50348 0.85 0.85 4.33815 0.85 8.64507V15.8508V20.7278V38.4784V38.4785V38.4786V38.4787V38.4788V38.4789V38.479V38.4792V38.4793V38.4794V38.4795V38.4796V38.4797V38.4798V38.4799V38.48V38.4801V38.4802V38.4803V38.4804V38.4805V38.4806V38.4807V38.4808V38.4809V38.4809V38.481V38.4811V38.4812V38.4813V38.4814V38.4815V38.4816V38.4817V38.4818V38.4819V38.482V38.4821V38.4822V38.4823V38.4824V38.4825V38.4826V38.4827V38.4828V38.4829V38.483V38.4831V38.4832V38.4833V38.4833V38.4834V38.4835V38.4836V38.4837V38.4838V38.4839V38.484V38.4841V38.4842V38.4843V38.4844V38.4845V38.4846V38.4846V38.4847V38.4848V38.4849V38.485V38.4851V38.4852V38.4853V38.4854V38.4855V38.4856V38.4856V38.4857V38.4858V38.4859V38.486V38.4861V38.4862V38.4863V38.4864V38.4865V38.4865V38.4866V38.4867V38.4868V38.4869V38.487V38.4871V38.4872V38.4872V38.4873V38.4874V38.4875V38.4876V38.4877V38.4878V38.4879V38.4879V38.488V38.4881V38.4882V38.4883V38.4884V38.4885V38.4886V38.4886V38.4887V38.4888V38.4889V38.489V38.4891V38.4891V38.4892V38.4893V38.4894V38.4895V38.4896V38.4897V38.4897V38.4898V38.4899V38.49V38.4901V38.4902V38.4902V38.4903V38.4904V38.4905V38.4906V38.4907V38.4907V38.4908V38.4909V38.491V38.4911V38.4912V38.4912V38.4913V38.4914V38.4915V38.4916V38.4917V38.4917V38.4918V38.4919V38.492V38.4921V38.4921V38.4922V38.4923V38.4924V38.4925V38.4925V38.4926V38.4927V38.4928V38.4929V38.493V38.493V38.4931V38.4932V38.4933V38.4934V38.4934V38.4935V38.4936V38.4937V38.4938V38.4938V38.4939V38.494V38.4941V38.4942V38.4942V38.4943V38.4944V38.4945V38.4946V38.4946V38.4947V38.4948V38.4949V38.495V38.495V38.4951V38.4952V38.4953V38.4953V38.4954V38.4955V38.4956V38.4957V38.4957V38.4958V38.4959V38.496V38.4961V38.4961V38.4962V38.4963V38.4964V38.4964V38.4965V38.4966V38.4967V38.4968V38.4968V38.4969V38.497V38.4971V38.4972V38.4972V38.4973V38.4974V38.4975V38.4975V38.4976V38.4977V38.4978V38.4979V38.4979V38.498V38.4981V38.4982V38.4982V38.4983V38.4984V38.4985V38.4986V38.4986V38.4987V38.4988V38.4989V38.4989V38.499V38.4991V38.4992V38.4992V38.4993V38.4994V38.4995V38.4996V38.4996V38.4997V38.4998V38.4999V38.4999V38.5V38.5001V38.5002V38.5003V38.5003V38.5004V38.5005V38.5006V38.5006V38.5007V38.5008V38.5009V38.5009V38.501V38.5011V38.5012V38.5013V38.5013V38.5014V38.5015V38.5016V38.5016V38.5017V38.5018V38.5019V38.502V38.502V38.5021V38.5022V38.5023V38.5023V38.5024V38.5025V38.5026V38.5026V38.5027V38.5028V38.5029V38.503V38.503V38.5031V38.5032V38.5033V38.5033V38.5034V38.5035V38.5036V38.5037V38.5037V38.5038V38.5039V38.504V38.504V38.5041V38.5042V38.5043V38.5044V38.5044V38.5045V38.5046V38.5047V38.5048V38.5048V38.5049V38.505V38.5051V38.5051V38.5052V38.5053V38.5054V38.5055V38.5055V38.5056V38.5057V38.5058V38.5059V38.5059V38.506V38.5061V38.5062V38.5063V38.5063V38.5064V38.5065V38.5066V38.5067V38.5067V38.5068V38.5069V38.507V38.507V38.5071V38.5072V38.5073V38.5074V38.5075V38.5075V38.5076V38.5077V38.5078V38.5079V38.5079V38.508V38.5081V38.5082V38.5083V38.5083V38.5084V38.5085V38.5086V38.5087V38.5087V38.5088V38.5089V38.509V38.5091V38.5092V38.5092V38.5093V38.5094V38.5095V38.5096V38.5097V38.5097V38.5098V38.5099V38.51V38.5101V38.5101V38.5102V38.5103V38.5104V38.5105V38.5106V38.5107V38.5107V38.5108V38.5109V38.511V38.5111V38.5112V38.5112V38.5113V38.5114V38.5115V38.5116V38.5117V38.5117V38.5118V38.5119V38.512V38.5121V38.5122V38.5123V38.5123V38.5124V38.5125V38.5126V38.5127V38.5128V38.5129V38.513V38.513V38.5131V38.5132V38.5133V38.5134V38.5135V38.5136V38.5136V38.5137V38.5138V38.5139V38.514V38.5141V38.5142V38.5143V38.5144V38.5144V38.5145V38.5146V38.5147V38.5148V38.5149V38.515V38.5151V38.5152V38.5153V38.5153V38.5154V38.5155V38.5156V38.5157V38.5158V38.5159V38.516V38.5161V38.5162V38.5163V38.5163V38.5164V38.5165V38.5166V38.5167V38.5168V38.5169V38.517V38.5171V38.5172V38.5173V38.5174V38.5175V38.5176V38.5176V38.5177V38.5178V38.5179V38.518V38.5181V38.5182V38.5183V38.5184V38.5185V38.5186V38.5187V38.5188V38.5189V38.519V38.5191V38.5192V38.5193V38.5194V38.5195V38.5196V38.5197V38.5198V38.5199V38.52V38.5201V38.5202V38.5203V38.5204V38.5205V38.5205V38.5207V38.5208V38.5209V38.521V38.521V38.5212V38.5213V38.5214V38.5215V38.5216V38.5217V38.5218V38.5219V38.522V38.5221V38.5222V38.5223L0.849957 38.5224ZM2.52695 8.64507C2.52695 5.24541 5.41859 2.46812 8.98633 2.46812C12.5541 2.46812 15.4457 5.24541 15.4457 8.64507V33.6118C13.9546 31.7546 11.6144 30.5516 8.98633 30.5516C6.35826 30.5516 4.01808 31.7546 2.52695 33.6118V20.7278V15.8508V8.64507ZM2.52695 38.3466C2.52695 34.947 5.41859 32.1697 8.98633 32.1697C12.5541 32.1697 15.4457 34.947 15.4457 38.3466C15.4457 41.7463 12.5541 44.5236 8.98633 44.5236C5.41859 44.5236 2.52695 41.7463 2.52695 38.3466ZM46.473 40.9389C46.473 42.9148 44.7934 44.5236 42.7217 44.5236H35.6992H28.484H13.9439C15.8711 43.0963 17.1227 40.8608 17.1227 38.3466V38.3466V38.3465V38.3465V38.3464V38.3464V38.3463V38.3463V38.3462V38.3462V38.3461V38.346V38.346V38.3459V38.3459V38.3458V38.3458V38.3457V38.3457V38.3456V38.3456V38.3455V38.3454V38.3454V38.3453V38.3453V38.3452V38.3452V38.3451V38.3451V38.345V38.3449V38.3449V38.3448V38.3448V38.3447V38.3446V38.3446V38.3445V38.3445V38.3444V38.3444V38.3443V38.3442V38.3442V38.3441V38.3441V38.344V38.3439V38.3439V38.3438V38.3438V38.3437V38.3436V38.3436V38.3435V38.3434V38.3434V38.3433V38.3433V38.3432V38.3431V38.3431V38.343V38.343V38.3429V38.3428V38.3428V38.3427V38.3426V38.3426V38.3425V38.3424V38.3424V38.3423V38.3423V38.3422V38.3421V38.3421V38.342V38.3419V38.3419V38.3418V38.3417V38.3417V38.3416V38.3415V38.3415V38.3414V38.3413V38.3413V38.3412V38.3411V38.3411V38.341V38.3409V38.3409V38.3408V38.3407V38.3407V38.3406V38.3405V38.3405V38.3404V38.3403V38.3403V38.3402V38.3401V38.3401V38.34V38.3399V38.3399V38.3398V38.3397V38.3396V38.3396V38.3395V38.3394V38.3394V38.3393V38.3392V38.3392V38.3391V38.339V38.3389V38.3389V38.3388V38.3387V38.3387V38.3386V38.3385V38.3384V38.3384V38.3383V38.3382V38.3382V38.3381V38.338V38.3379V38.3379V38.3378V38.3377V38.3377V38.3376V38.3375V38.3374V38.3374V38.3373V38.3372V38.3372V38.3371V38.337V38.3369V38.3369V38.3368V38.3367V38.3366V38.3366V38.3365V38.3364V38.3363V38.3363V38.3362V38.3361V38.3361V38.336V38.3359V38.3358V38.3358V38.3357V38.3356V38.3355V38.3355V38.3354V38.3353V38.3352V38.3352V38.3351V38.335V38.3349V38.3349V38.3348V38.3347V38.3346V38.3346V38.3345V38.3344V38.3343V38.3343V38.3342V38.3341V38.334V38.334V38.3339V38.3338V38.3337V38.3337V38.3336V38.3335V38.3334V38.3334V38.3333V38.3332V38.3331V38.333V38.333V38.3329V38.3328V38.3327V38.3327V38.3326V38.3325V38.3324V38.3324V38.3323V38.3322V38.3321V38.3321V38.332V38.3319V38.3318V38.3317V38.3317V38.3316V38.3315V38.3314V38.3314V38.3313V38.3312V38.3311V38.3311V38.331V38.3309V38.3308V38.3307V38.3307V38.3306V38.3305V38.3304V38.3304V38.3303V38.3302V38.3301V38.3301V38.33V38.3299V38.3298V38.3297V38.3297V38.3296V38.3295V38.3294V38.3294V38.3293V38.3292V38.3291V38.3291V38.329V38.3289V38.3288V38.3287V38.3287V38.3286V38.3285V38.3284V38.3284V38.3283V38.3282V38.3281V38.328V38.328V38.3279V38.3278V38.3277V38.3277V38.3276V38.3275V38.3274V38.3274V38.3273V38.3272V38.3271V38.327V38.327V38.3269V38.3268V38.3267V38.3267V38.3266V38.3265V38.3264V38.3264V38.3263V38.3262V38.3261V38.326V38.326V38.3259V38.3258V38.3257V38.3257V38.3256V38.3255V38.3254V38.3254V38.3253V38.3252V38.3251V38.3251V38.325V38.3249V38.3248V38.3247V38.3247V38.3246V38.3245V38.3244V38.3244V38.3243V38.3242V38.3241V38.3241V38.324V38.3239V38.3238V38.3238V38.3237V38.3236V38.3235V38.3235V38.3234V38.3233V38.3232V38.3232V38.3231V38.323V38.3229V38.3229V38.3228V38.3227V38.3226V38.3226V38.3225V38.3224V38.3223V38.3223V38.3222V38.3221V38.322V38.322V38.3219V38.3218V38.3218V38.3217V38.3216V38.3215V38.3215V38.3214V38.3213V38.3212V38.3212V38.3211V38.321V38.3209V38.3209V38.3208V38.3207V38.3207V38.3206V38.3205V38.3204V38.3204V38.3203V38.3202V38.3202V38.3201V38.32V38.3199V38.3199V38.3198V38.3197V38.3197V38.3196V38.3195V38.3194V38.3194V38.3193V38.3192V38.3192V38.3191V38.319V38.3189V38.3189V38.3188V38.3187V38.3187V38.3186V38.3185V38.3185V38.3184V38.3183V38.3183V38.3182V38.3181V38.318V38.318V38.3179V38.3178V38.3178V38.3177V38.3176V38.3176V38.3175V38.3174V38.3174V38.3173V38.3172V38.3172V38.3171V38.317V38.317V38.3169V38.3168V38.3168V38.3167V38.3166V38.3166V38.3165V38.3164V38.3164V38.3163V38.3162V38.3162V38.3161V38.316V38.316V38.3159V38.3158V38.3158V38.3157V38.3157V38.3156V38.3155V38.3155V38.3154V38.3153V38.3153V38.3152V38.3152V38.3151V38.315V38.315V38.3149V38.3148V38.3148V38.3147V38.3147V38.3146V38.3145V38.3145V38.3144V38.3143V38.3143V38.3142V38.3142V38.3141V38.314V38.314V38.3139V38.3139V38.3138V38.3137V38.3137V38.3136V38.3136V38.3135V38.3135V38.3134V38.3133V38.3133V38.3132V38.3132V38.3131V38.3131V38.313V38.3129V38.3129V38.3128V38.3128V38.3127V38.3127V38.3126V38.3125V38.3125V38.3124V38.3124V38.3123V38.3123V38.3122V38.3122V38.3121V38.3121V38.312V38.312V38.3119V38.3118V38.3118V38.3117V38.3117V38.3116V38.3116V38.3115V38.3115V38.3027V8.64507V8.64471V8.64435V8.64399V8.64363V8.64327V8.64291V8.64256V8.6422V8.64184V8.64148V8.64112V8.64076V8.64041V8.64005V8.63969V8.63933V8.63898V8.63862V8.63826V8.6379V8.63755V8.63719V8.63684V8.63648V8.63612V8.63577V8.63541V8.63506V8.6347V8.63435V8.63399V8.63364V8.63328V8.63293V8.63258V8.63222V8.63187V8.63152V8.63116V8.63081V8.63046V8.6301V8.62975V8.6294V8.62905V8.62869V8.62834V8.62799V8.62764V8.62729V8.62694V8.62659V8.62623V8.62588V8.62553V8.62518V8.62483V8.62448V8.62413V8.62378V8.62343V8.62308V8.62273V8.62238V8.62204V8.62169V8.62134V8.62099V8.62064V8.62029V8.61994V8.6196V8.61933H42.7217C44.8021 8.61933 46.473 10.2365 46.473 12.204V40.9389Z" fill="url(#paint2_linear)" stroke="url(#paint3_linear)" stroke-width="0.3"/>
<path d="M42.3665 41.1005L42.2627 40.9922L42.3665 41.1005L43.1284 40.371C43.3154 40.192 43.3903 39.9781 43.3732 39.7688C43.3566 39.5642 43.2535 39.3777 43.11 39.2403C42.8242 38.9667 42.3323 38.8547 41.9479 39.2227L41.186 39.9522L41.2897 40.0605L41.1859 39.9522C40.9989 40.1313 40.9241 40.3452 40.9411 40.5545C40.9578 40.759 41.0608 40.9456 41.2043 41.083C41.4901 41.3566 41.982 41.4686 42.3665 41.1005Z" fill="url(#paint4_linear)" stroke="url(#paint5_linear)" stroke-width="0.3"/>
<path d="M41.9479 32.315L33.9798 39.943C33.4496 40.4506 33.8525 41.3263 34.5701 41.3263C34.7801 41.3263 34.9926 41.2519 35.1603 41.0913L43.1284 33.4632C43.3154 33.2842 43.3903 33.0703 43.3732 32.861C43.3566 32.6564 43.2535 32.4699 43.11 32.3325C42.8242 32.0589 42.3323 31.947 41.9479 32.315Z" fill="url(#paint6_linear)" stroke="url(#paint7_linear)" stroke-width="0.3"/>
<path d="M26.9207 39.7937L26.9206 39.7937C26.3904 40.3013 26.7934 41.1769 27.5109 41.1769C27.7209 41.1769 27.9334 41.1024 28.1011 40.9419L43.1284 26.5572C43.3154 26.3782 43.3903 26.1643 43.3732 25.9552C43.3566 25.7507 43.2534 25.5644 43.1098 25.4275C42.8233 25.1545 42.3312 25.046 41.9475 25.4181C41.9474 25.4183 41.9472 25.4184 41.9471 25.4186L26.9207 39.7937Z" fill="url(#paint8_linear)" stroke="url(#paint9_linear)" stroke-width="0.3"/>
<path d="M43.1284 19.6587L43.1292 19.6579C43.3157 19.4768 43.3902 19.2616 43.3732 19.0516C43.3566 18.8462 43.2537 18.6591 43.11 18.5215C42.8235 18.2472 42.3312 18.1386 41.9475 18.5109C41.9474 18.511 41.9472 18.5111 41.9471 18.5113L19.5494 39.9517C19.0192 40.4592 19.4221 41.3348 20.1397 41.3348C20.3497 41.3348 20.5622 41.2604 20.7299 41.0999L43.1284 19.6587Z" fill="url(#paint10_linear)" stroke="url(#paint11_linear)" stroke-width="0.3"/>
<path d="M20.1332 34.7641L42.4674 13.384C42.6544 13.205 42.7293 12.9911 42.7122 12.7818C42.6956 12.5773 42.5925 12.3908 42.449 12.2534C42.1632 11.9798 41.6713 11.8679 41.2869 12.2359L18.9527 33.616C18.4225 34.1235 18.8255 34.9991 19.543 34.9991C19.753 34.9991 19.9655 34.9247 20.1332 34.7641Z" fill="url(#paint12_linear)" stroke="url(#paint13_linear)" stroke-width="0.3"/>
<path d="M35.2522 13.3931L35.2522 13.393C35.5801 13.0791 35.5801 12.5588 35.2522 12.2449C34.928 11.9345 34.396 11.9345 34.0717 12.2448C34.0717 12.2449 34.0717 12.2449 34.0717 12.2449L18.9527 26.7087L18.9527 26.7088C18.6248 27.0227 18.6248 27.543 18.9527 27.8569C19.2769 28.1673 19.8089 28.1673 20.1332 27.857C20.1332 27.857 20.1332 27.8569 20.1332 27.8569L35.2522 13.3931Z" fill="url(#paint14_linear)" stroke="url(#paint15_linear)" stroke-width="0.3"/>
<path d="M28.046 13.3931L28.046 13.3932L20.1332 20.9597L20.1331 20.9597L20.0295 20.8513L28.046 13.3931ZM28.046 13.3931C28.3739 13.0792 28.3739 12.5588 28.046 12.2449M28.046 13.3931V12.2449M28.046 12.2449C27.7218 11.9345 27.1898 11.9345 26.8655 12.2449H28.046Z" fill="url(#paint16_linear)" stroke="url(#paint17_linear)" stroke-width="0.3"/>
<path d="M20.1331 14.0518L20.84 13.3755C21.1679 13.0617 21.1679 12.5415 20.84 12.2277C20.5158 11.9175 19.9837 11.9175 19.6595 12.2277L18.9527 12.904C18.7657 13.083 18.6908 13.2968 18.7078 13.506C18.7245 13.7105 18.8276 13.897 18.9711 14.0343C19.2569 14.3078 19.7487 14.4197 20.1331 14.0518Z" fill="url(#paint18_linear)" stroke="url(#paint19_linear)" stroke-width="0.3"/>
<defs>
<linearGradient id="paint0_linear" x1="3.7998" y1="33.5106" x2="16.0651" y2="37.5118" gradientUnits="userSpaceOnUse">
<stop stop-color="#FF5C29"/>
<stop offset="1" stop-color="#FFBF29"/>
</linearGradient>
<linearGradient id="paint1_linear" x1="3.7998" y1="33.5106" x2="16.0651" y2="37.5118" gradientUnits="userSpaceOnUse">
<stop stop-color="#FF5C29"/>
<stop offset="1" stop-color="#FFBF29"/>
</linearGradient>
<linearGradient id="paint2_linear" x1="1" y1="1.58323" x2="56.5731" y2="19.7137" gradientUnits="userSpaceOnUse">
<stop stop-color="#FF5C29"/>
<stop offset="1" stop-color="#FFBF29"/>
</linearGradient>
<linearGradient id="paint3_linear" x1="1" y1="1.58323" x2="56.5731" y2="19.7137" gradientUnits="userSpaceOnUse">
<stop stop-color="#FF5C29"/>
<stop offset="1" stop-color="#FFBF29"/>
</linearGradient>
<linearGradient id="paint4_linear" x1="41.0887" y1="39.1652" x2="43.6154" y2="39.9894" gradientUnits="userSpaceOnUse">
<stop stop-color="#FF5C29"/>
<stop offset="1" stop-color="#FFBF29"/>
</linearGradient>
<linearGradient id="paint5_linear" x1="41.0887" y1="39.1652" x2="43.6154" y2="39.9894" gradientUnits="userSpaceOnUse">
<stop stop-color="#FF5C29"/>
<stop offset="1" stop-color="#FFBF29"/>
</linearGradient>
<linearGradient id="paint6_linear" x1="33.889" y1="32.3469" x2="44.9305" y2="35.946" gradientUnits="userSpaceOnUse">
<stop stop-color="#FF5C29"/>
<stop offset="1" stop-color="#FFBF29"/>
</linearGradient>
<linearGradient id="paint7_linear" x1="33.889" y1="32.3469" x2="44.9305" y2="35.946" gradientUnits="userSpaceOnUse">
<stop stop-color="#FF5C29"/>
<stop offset="1" stop-color="#FFBF29"/>
</linearGradient>
<linearGradient id="paint8_linear" x1="26.8298" y1="25.5326" x2="46.2169" y2="31.8565" gradientUnits="userSpaceOnUse">
<stop stop-color="#FF5C29"/>
<stop offset="1" stop-color="#FFBF29"/>
</linearGradient>
<linearGradient id="paint9_linear" x1="26.8298" y1="25.5326" x2="46.2169" y2="31.8565" gradientUnits="userSpaceOnUse">
<stop stop-color="#FF5C29"/>
<stop offset="1" stop-color="#FFBF29"/>
</linearGradient>
<linearGradient id="paint10_linear" x1="19.4586" y1="18.717" x2="47.5636" y2="27.8814" gradientUnits="userSpaceOnUse">
<stop stop-color="#FF5C29"/>
<stop offset="1" stop-color="#FFBF29"/>
</linearGradient>
<linearGradient id="paint11_linear" x1="19.4586" y1="18.717" x2="47.5636" y2="27.8814" gradientUnits="userSpaceOnUse">
<stop stop-color="#FF5C29"/>
<stop offset="1" stop-color="#FFBF29"/>
</linearGradient>
<linearGradient id="paint12_linear" x1="18.8619" y1="12.4461" x2="46.8898" y2="21.587" gradientUnits="userSpaceOnUse">
<stop stop-color="#FF5C29"/>
<stop offset="1" stop-color="#FFBF29"/>
</linearGradient>
<linearGradient id="paint13_linear" x1="18.8619" y1="12.4461" x2="46.8898" y2="21.587" gradientUnits="userSpaceOnUse">
<stop stop-color="#FF5C29"/>
<stop offset="1" stop-color="#FFBF29"/>
</linearGradient>
<linearGradient id="paint14_linear" x1="18.8568" y1="12.3666" x2="38.3541" y2="18.7312" gradientUnits="userSpaceOnUse">
<stop stop-color="#FF5C29"/>
<stop offset="1" stop-color="#FFBF29"/>
</linearGradient>
<linearGradient id="paint15_linear" x1="18.8568" y1="12.3666" x2="38.3541" y2="18.7312" gradientUnits="userSpaceOnUse">
<stop stop-color="#FF5C29"/>
<stop offset="1" stop-color="#FFBF29"/>
</linearGradient>
<linearGradient id="paint16_linear" x1="18.8555" y1="12.2772" x2="29.834" y2="15.8622" gradientUnits="userSpaceOnUse">
<stop stop-color="#FF5C29"/>
<stop offset="1" stop-color="#FFBF29"/>
</linearGradient>
<linearGradient id="paint17_linear" x1="18.8555" y1="12.2772" x2="29.834" y2="15.8622" gradientUnits="userSpaceOnUse">
<stop stop-color="#FF5C29"/>
<stop offset="1" stop-color="#FFBF29"/>
</linearGradient>
<linearGradient id="paint18_linear" x1="18.8555" y1="12.1708" x2="21.3152" y2="12.9736" gradientUnits="userSpaceOnUse">
<stop stop-color="#FF5C29"/>
<stop offset="1" stop-color="#FFBF29"/>
</linearGradient>
<linearGradient id="paint19_linear" x1="18.8555" y1="12.1708" x2="21.3152" y2="12.9736" gradientUnits="userSpaceOnUse">
<stop stop-color="#FF5C29"/>
<stop offset="1" stop-color="#FFBF29"/>
</linearGradient>
</defs>
</svg>
