<svg width="37" height="59" viewBox="0 0 37 59" fill="none" xmlns="http://www.w3.org/2000/svg">
<path d="M18.7988 21.5854L10.6731 29.8022C10.6069 29.8696 10.5282 29.9232 10.4415 29.9597C10.3548 29.9962 10.2618 30.015 10.1679 30.015C10.074 30.015 9.98095 29.9962 9.89424 29.9597C9.80754 29.9232 9.72884 29.8696 9.66269 29.8022C9.596 29.7353 9.54307 29.6557 9.50694 29.5681C9.47082 29.4804 9.45222 29.3863 9.45222 29.2913C9.45222 29.1964 9.47082 29.1023 9.50694 29.0146C9.54307 28.927 9.596 28.8474 9.66269 28.7805L17.7885 20.5493C17.9243 20.4138 18.1079 20.3384 18.2987 20.3398C18.4895 20.3411 18.672 20.4191 18.806 20.5565C18.9399 20.6939 19.0145 20.8794 19.0131 21.0724C19.0118 21.2654 18.9347 21.4499 18.7988 21.5854ZM25.6154 22.3049C25.4821 22.1709 25.3017 22.0956 25.1137 22.0956C24.9258 22.0956 24.7454 22.1709 24.6121 22.3049L11.3846 35.6518C11.3146 35.719 11.2589 35.8 11.2209 35.8896C11.1828 35.9793 11.1631 36.0759 11.1631 36.1735C11.1631 36.2711 11.1828 36.3676 11.2209 36.4573C11.2589 36.547 11.3146 36.6279 11.3846 36.6951C11.5179 36.8291 11.6983 36.9044 11.8863 36.9044C12.0742 36.9044 12.2546 36.8291 12.3879 36.6951L25.6154 23.3482C25.6854 23.281 25.7411 23.2 25.7791 23.1104C25.8172 23.0207 25.8369 22.9241 25.8369 22.8265C25.8369 22.7289 25.8172 22.6324 25.7791 22.5427C25.7411 22.453 25.6854 22.3721 25.6154 22.3049ZM26.3269 29.1978L18.2012 37.4146C18.1345 37.4815 18.0815 37.5611 18.0454 37.6488C18.0093 37.7365 17.9907 37.8305 17.9907 37.9255C17.9907 38.0205 18.0093 38.1145 18.0454 38.2022C18.0815 38.2899 18.1345 38.3695 18.2012 38.4363C18.2673 38.5038 18.346 38.5573 18.4327 38.5938C18.5194 38.6304 18.6124 38.6492 18.7063 38.6492C18.8003 38.6492 18.8933 38.6304 18.98 38.5938C19.0667 38.5573 19.1454 38.5038 19.2115 38.4363L27.3515 30.2195C27.4179 30.1515 27.4703 30.0709 27.5059 29.9824C27.5414 29.8939 27.5594 29.7991 27.5587 29.7036C27.5581 29.608 27.5388 29.5136 27.502 29.4255C27.4653 29.3375 27.4117 29.2577 27.3444 29.1906C27.2771 29.1235 27.1975 29.0705 27.1099 29.0345C27.0224 28.9986 26.9287 28.9804 26.8342 28.9811C26.7397 28.9818 26.6463 29.0013 26.5592 29.0384C26.4722 29.0756 26.3933 29.1298 26.3269 29.1978ZM37 18.7073V58.2805C37 58.4713 36.925 58.6543 36.7916 58.7893C36.6582 58.9242 36.4772 59 36.2885 59H0.711538C0.522827 59 0.341844 58.9242 0.208404 58.7893C0.0749649 58.6543 0 58.4713 0 58.2805V18.7073C0 13.7458 1.9491 8.98755 5.41852 5.47925C8.88795 1.97094 13.5935 0 18.5 0C23.4065 0 28.112 1.97094 31.5815 5.47925C35.0509 8.98755 37 13.7458 37 18.7073ZM35.5769 18.7073C35.5769 14.1275 33.7778 9.73522 30.5752 6.49679C27.3727 3.25836 23.0291 1.43902 18.5 1.43902C13.9709 1.43902 9.62734 3.25836 6.42479 6.49679C3.22225 9.73522 1.42308 14.1275 1.42308 18.7073V57.561H35.5769V18.7073ZM34.1538 18.7073V55.4024C34.1538 55.5933 34.0789 55.7763 33.9454 55.9112C33.812 56.0462 33.631 56.122 33.4423 56.122H3.55769C3.36898 56.122 3.188 56.0462 3.05456 55.9112C2.92112 55.7763 2.84615 55.5933 2.84615 55.4024V18.7073C2.84615 14.5091 4.49539 10.4829 7.43106 7.51433C10.3667 4.54577 14.3483 2.87805 18.5 2.87805C22.6517 2.87805 26.6333 4.54577 29.5689 7.51433C32.5046 10.4829 34.1538 14.5091 34.1538 18.7073ZM32.7308 18.7073C32.7308 14.8908 31.2315 11.2306 28.5627 8.53188C25.8939 5.83318 22.2742 4.31707 18.5 4.31707C14.7258 4.31707 11.1061 5.83318 8.43733 8.53188C5.76854 11.2306 4.26923 14.8908 4.26923 18.7073V54.6829H32.7308V18.7073Z" fill="url(#paint0_linear)"/>
<defs>
<linearGradient id="paint0_linear" x1="-3.51551e-07" y1="0.764816" x2="46.6173" y2="9.89492" gradientUnits="userSpaceOnUse">
<stop stop-color="#FF5C29"/>
<stop offset="1" stop-color="#FFBF29"/>
</linearGradient>
</defs>
</svg>
