<svg width="57" height="59" viewBox="0 0 57 59" fill="none" xmlns="http://www.w3.org/2000/svg">
<path d="M11.2297 11.7751C14.476 11.7751 17.1173 9.13451 17.1173 5.8882C17.1173 2.64123 14.476 0 11.2297 0C7.98275 0 5.34021 2.64123 5.34021 5.88754C5.33955 9.13451 7.98275 11.7751 11.2297 11.7751ZM11.2297 1.77983C13.4947 1.77983 15.3368 3.6226 15.3368 5.8882C15.3368 8.15249 13.4947 9.99526 11.2297 9.99526C8.96412 9.99526 7.1207 8.15249 7.1207 5.8882C7.1207 3.6226 8.96412 1.77983 11.2297 1.77983Z" fill="url(#paint0_linear)"/>
<path d="M0.00335125 34.3177V34.3203C0.00335125 34.3845 0.011218 34.4461 0.0236736 34.5071C0.152162 36.0431 1.52358 37.2611 3.21295 37.2611C3.72887 37.2611 4.21005 37.1372 4.64206 36.9353V55.2273C4.64206 57.308 6.32028 59 8.38201 59C9.52202 59 10.5427 58.4808 11.2291 57.6672C11.9161 58.4808 12.9362 59 14.0768 59C16.1379 59 17.8155 57.308 17.8155 55.2273L17.8017 36.9268C18.2389 37.1333 18.7267 37.2611 19.2498 37.2611C20.9208 37.2611 22.2811 36.0641 22.4306 34.5464C22.4496 34.473 22.4633 34.3976 22.4633 34.319L22.4594 22.2122C22.4594 15.9883 16.8072 12.7322 11.2232 12.7322C5.81813 12.7322 7.37055e-05 15.6992 7.37055e-05 22.2128L0.00400675 34.2344C0.00400675 34.2482 7.37055e-05 34.2626 7.37055e-05 34.277C-0.00058185 34.2914 0.00335125 34.3039 0.00335125 34.3177ZM11.2225 14.5127C15.7767 14.5127 20.6783 16.9225 20.6783 22.2135L20.6815 34.2416C20.6815 34.2541 20.6783 34.2652 20.6783 34.2783C20.6783 34.9417 20.0371 35.4806 19.2439 35.4806C18.4559 35.4806 17.8148 34.9417 17.8148 34.2783C17.8148 34.2318 17.8076 34.1865 17.801 34.1426V22.3098C17.801 21.8182 17.4031 21.4196 16.9114 21.4196C16.4198 21.4196 16.0212 21.8182 16.0212 22.3098L16.035 55.2273C16.035 56.326 15.1565 57.2195 14.0775 57.2195C13.005 57.2195 12.1344 56.3391 12.1213 55.2515C12.1213 55.2436 12.1226 55.2358 12.1226 55.2273L12.1193 34.6179C12.1193 34.1262 11.7208 33.7283 11.2291 33.7283C10.7374 33.7283 10.3388 34.1262 10.3388 34.6179L10.3369 55.2273C10.3369 55.2358 10.3382 55.2436 10.3382 55.2515C10.3244 56.3391 9.45384 57.2195 8.38266 57.2195C7.30296 57.2195 6.42321 56.326 6.42321 55.2273V22.3112C6.42321 21.8195 6.02528 21.4209 5.53362 21.4209C5.04195 21.4209 4.64337 21.8195 4.64337 22.3112V34.2777C4.64337 34.9411 4.00224 35.48 3.20967 35.48C2.43612 35.48 1.80875 34.9601 1.78515 34.3137L1.77991 22.2128C1.77991 16.9218 6.67494 14.5127 11.2225 14.5127Z" fill="url(#paint1_linear)"/>
<path d="M43.1415 11.8138C46.3996 11.8138 49.05 9.16409 49.05 5.90729C49.05 2.65049 46.3996 0.000732422 43.1415 0.000732422C39.8847 0.000732422 37.2356 2.65049 37.2356 5.90729C37.2356 9.16409 39.8847 11.8138 43.1415 11.8138ZM43.1415 1.77991C45.4176 1.77991 47.2689 3.6312 47.2689 5.90663C47.2689 8.18207 45.4176 10.0334 43.1415 10.0334C40.8661 10.0334 39.0161 8.18207 39.0161 5.90663C39.0161 3.63186 40.8661 1.77991 43.1415 1.77991Z" fill="url(#paint2_linear)"/>
<path d="M31.9663 34.5221L32.3721 34.6171C32.6356 34.6788 32.8985 34.7083 33.1555 34.7083C33.2984 34.7083 33.4387 34.6945 33.5776 34.6761L31.2104 43.8526C31.1416 44.1194 31.1993 44.4033 31.3684 44.6203C31.5369 44.8379 31.7965 44.9651 32.0718 44.9651H37.2107V52.6017V55.57V56.0872C37.2107 56.2878 37.2796 56.4708 37.391 56.6196C37.8355 57.9962 39.1073 58.9999 40.6216 58.9999C41.6233 58.9999 42.5168 58.5554 43.1415 57.8625C43.7663 58.5554 44.6592 58.9999 45.6602 58.9999C47.1745 58.9999 48.4456 57.9969 48.8901 56.6209C49.0029 56.4714 49.0717 56.2885 49.0717 56.0879V44.9651H54.2099C54.4853 44.9651 54.7442 44.8386 54.9133 44.6209C55.0818 44.4033 55.1408 44.1194 55.0713 43.8533L52.7127 34.6768C52.849 34.6945 52.986 34.7083 53.1263 34.7083C53.3839 34.7083 53.6462 34.6788 53.909 34.6171L54.3161 34.5221C55.129 34.3313 55.8095 33.8357 56.2317 33.1264C56.6493 32.4223 56.7594 31.5957 56.5398 30.8005L56.1982 29.549C55.1244 25.6019 53.3282 18.9959 51.4822 15.3412C51.4815 15.3399 51.4809 15.3379 51.4802 15.3366C50.666 13.7233 48.4404 12.7583 46.7596 12.7583H39.5235C37.842 12.7583 35.6171 13.7233 34.8035 15.3359C32.9581 18.9867 31.16 25.5921 30.0868 29.5386L29.7426 30.7998C29.523 31.5957 29.6325 32.4217 30.0508 33.1258C30.4716 33.8351 31.1521 34.3313 31.9663 34.5221ZM31.4582 31.2732L31.8037 30.006C32.8598 26.1244 34.6278 19.6285 36.3919 16.1383C36.8535 15.2225 38.4261 14.5381 39.5229 14.5381H46.7589C47.8563 14.5381 49.4277 15.2225 49.8898 16.1377C49.8898 16.1383 49.8905 16.1383 49.8905 16.139C51.6552 19.6311 53.4239 26.1323 54.48 30.0158L54.8229 31.2725C54.9127 31.597 54.8688 31.9326 54.7003 32.2165C54.5279 32.5056 54.248 32.7088 53.9097 32.7875L53.5026 32.8832C52.9821 33.0064 52.459 32.8668 52.1718 32.5731L49.5352 22.3137C49.4132 21.8377 48.9308 21.5519 48.4522 21.6732C47.9756 21.7958 47.6891 22.2809 47.8117 22.7568L53.0614 43.1839H48.1815C47.6898 43.1839 47.2912 43.5825 47.2912 44.0742L47.2906 55.5694C47.2906 56.4793 46.5603 57.2187 45.6608 57.2187C44.7667 57.2187 44.0383 56.4858 44.0324 55.5818C44.0324 55.5779 44.0338 55.5739 44.0338 55.5694L44.0318 44.0749C44.0318 43.5832 43.6332 43.1846 43.1415 43.1846C42.6499 43.1846 42.2513 43.5832 42.2513 44.0749L42.25 55.57C42.25 55.5746 42.2513 55.5785 42.2513 55.5825C42.2447 56.4865 41.5171 57.2194 40.6222 57.2194C39.7235 57.2194 38.9925 56.4799 38.9925 55.57V44.0749C38.9925 43.5832 38.594 43.1846 38.1023 43.1846H33.2217L38.4923 22.7581C38.6156 22.2822 38.3291 21.7971 37.8525 21.6745C37.3766 21.5506 36.8915 21.8377 36.7689 22.3143L34.1257 32.5574C33.8418 32.8635 33.3121 33.0084 32.7792 32.8839L32.3727 32.7881C32.0351 32.7095 31.7539 32.5063 31.5821 32.2165C31.4123 31.9333 31.3691 31.5977 31.4582 31.2732Z" fill="url(#paint3_linear)"/>
<defs>
<linearGradient id="paint0_linear" x1="5.34021" y1="0.15264" x2="19.378" y2="4.53744" gradientUnits="userSpaceOnUse">
<stop stop-color="#FF5C29"/>
<stop offset="1" stop-color="#FFBF29"/>
</linearGradient>
<linearGradient id="paint1_linear" x1="-2.13433e-07" y1="13.3319" x2="28.7273" y2="17.6878" gradientUnits="userSpaceOnUse">
<stop stop-color="#FF5C29"/>
<stop offset="1" stop-color="#FFBF29"/>
</linearGradient>
<linearGradient id="paint2_linear" x1="37.2356" y1="0.153866" x2="51.3181" y2="4.55237" gradientUnits="userSpaceOnUse">
<stop stop-color="#FF5C29"/>
<stop offset="1" stop-color="#FFBF29"/>
</linearGradient>
<linearGradient id="paint3_linear" x1="29.632" y1="13.3577" x2="63.8399" y2="19.5998" gradientUnits="userSpaceOnUse">
<stop stop-color="#FF5C29"/>
<stop offset="1" stop-color="#FFBF29"/>
</linearGradient>
</defs>
</svg>
