<svg width="66" height="52" viewBox="0 0 66 52" fill="none" xmlns="http://www.w3.org/2000/svg">
<path d="M64.5078 0.8H64.4926L64.4775 0.802305L32.967 5.62824L1.4565 0.802305L1.44145 0.8H1.42623C1.34216 0.8 1.25408 0.835828 1.19471 0.865513C1.12902 0.898359 1.05596 0.94535 1.00065 1.00065C0.999125 1.00218 0.997572 1.00373 0.995997 1.00531C0.922239 1.07896 0.8 1.20102 0.8 1.42623V34.1747C0.8 34.3809 0.903901 34.598 1.12192 34.7079C1.1225 34.7082 1.12308 34.7084 1.12367 34.7087L32.6616 51.117L32.6645 51.1185C32.758 51.1652 32.8595 51.1929 32.9581 51.1929C33.0452 51.1929 33.1433 51.1706 33.2231 51.1057L64.7393 34.7087C64.7399 34.7085 64.7405 34.7082 64.7411 34.7079C64.9591 34.598 65.063 34.3809 65.063 34.1747V1.46793C65.1 1.37184 65.1033 1.27534 65.0665 1.18323C65.0329 1.0994 64.9708 1.03776 64.9392 1.00646C64.9371 1.00439 64.9352 1.00246 64.9334 1.00065C64.8781 0.94535 64.805 0.898358 64.7393 0.865513C64.68 0.835827 64.5919 0.8 64.5078 0.8ZM14.3747 9.75173L14.3649 9.75077H14.3551C14.1825 9.75077 14.0094 9.79365 13.875 9.90115C13.7346 10.0135 13.6578 10.1797 13.6578 10.377V10.448V31.307L2.19453 33.2976V2.22873L32.2698 6.9959V28.1094L25.0687 29.3208V11.4426C25.0687 11.2967 25.0215 11.1306 24.9239 10.9964C24.8245 10.8597 24.6658 10.749 24.4532 10.7454L14.3747 9.75173ZM34.0907 29.6631L6.84946 36.1654L6.63334 36.0574L6.63039 36.0559L3.748 34.5546L32.9677 29.4759L34.0907 29.6631ZM10.9672 38.3644L7.74361 36.6614L35.8159 29.9742L38.3842 30.3935L10.9672 38.3644ZM15.2955 40.564L11.9038 38.7757L39.9393 30.6858L42.6872 31.1804L15.2955 40.564ZM19.695 42.8348L16.136 40.9616L44.0659 31.3258L47.4975 31.9074L19.695 42.8348ZM24.0257 45.1058L20.5147 43.2249L48.7581 32.1791L52.5176 32.8356L24.0257 45.1058ZM28.4956 47.448L24.7657 45.4883L53.734 33.1032L57.1115 33.6958L28.4956 47.448ZM29.2209 47.8219L58.2148 33.8852L62.1826 34.5567L32.9674 49.7904L29.2209 47.8219ZM14.9813 31.0958V11.1649L19.1278 11.5536V30.3832L14.9813 31.0958ZM23.6742 29.6019L19.954 30.2433V11.6643L23.6742 12.0492V29.6019ZM33.7353 6.99583L63.7395 2.22881V33.2978L33.7353 28.1101V6.99583Z" fill="url(#paint0_linear_12_21)" stroke="url(#paint1_linear_12_21)" stroke-width="0.4"/>
<defs>
<linearGradient id="paint0_linear_12_21" x1="0.999999" y1="1.64806" x2="73.1013" y2="30.4262" gradientUnits="userSpaceOnUse">
<stop stop-color="#FF5C29"/>
<stop offset="1" stop-color="#FFBF29"/>
</linearGradient>
<linearGradient id="paint1_linear_12_21" x1="0.999999" y1="1.64806" x2="73.1013" y2="30.4262" gradientUnits="userSpaceOnUse">
<stop stop-color="#FF5C29"/>
<stop offset="1" stop-color="#FFBF29"/>
</linearGradient>
</defs>
</svg>
