<svg width="43" height="48" viewBox="0 0 43 48" fill="none" xmlns="http://www.w3.org/2000/svg">
<path d="M9.84 0C6.92213 0 4.54 2.40933 4.54 5.36049V25.7303H1.36C1.32689 25.7287 1.29373 25.7287 1.26062 25.7303C0.997063 25.7554 0.752334 25.8794 0.574565 26.0778C0.396796 26.2762 0.298853 26.5346 0.299998 26.8024V35.3791C0.299998 37.837 1.9541 39.928 4.19218 40.5554L2.46969 45.7483C2.37963 46.0193 2.39971 46.3154 2.52551 46.5714C2.6513 46.8275 2.8725 47.0224 3.14046 47.1135C3.40841 47.2046 3.70116 47.1843 3.9543 47.0571C4.20745 46.9298 4.40026 46.7061 4.49031 46.4351L6.36187 40.7396H36.6381L38.5097 46.4351C38.5997 46.7061 38.7925 46.9298 39.0457 47.0571C39.2988 47.1843 39.5916 47.2046 39.8595 47.1135C40.1275 47.0224 40.3487 46.8275 40.4745 46.5714C40.6003 46.3154 40.6204 46.0193 40.5303 45.7483L38.8078 40.5554C41.0459 39.928 42.7 37.837 42.7 35.3791V26.8024C42.7 26.5181 42.5883 26.2454 42.3895 26.0443C42.1907 25.8433 41.9211 25.7303 41.64 25.7303H6.66V5.36049C6.66 3.56013 8.05994 2.1442 9.84 2.1442C10.3789 2.1442 10.8768 2.28372 11.3141 2.51273C9.22255 5.14849 9.37992 9.03277 11.7944 11.4748C11.9928 11.6732 12.2606 11.7845 12.5397 11.7845C12.8187 11.7845 13.0865 11.6732 13.285 11.4748L21.1853 3.48433C21.2849 3.38462 21.364 3.26589 21.418 3.13506C21.472 3.00423 21.4998 2.8639 21.4998 2.72214C21.4998 2.58037 21.472 2.44001 21.418 2.30918C21.364 2.17835 21.2849 2.05965 21.1853 1.95995C19.8916 0.651442 18.1853 0 16.4816 0C15.2547 0 14.04 0.34413 12.9703 1.02185C12.0946 0.3789 11.0009 0 9.84 0ZM16.4816 2.12745C17.2927 2.12745 18.0816 2.42252 18.8003 2.86451L12.6887 9.04582C11.6312 7.28281 11.7743 5.01229 13.285 3.48433C14.1737 2.58552 15.3249 2.12745 16.4816 2.12745ZM2.42 27.8745H40.58V35.3791C40.58 37.1795 39.18 38.5954 37.4 38.5954H5.6C3.81995 38.5954 2.42 37.1795 2.42 35.3791V27.8745Z" fill="url(#paint0_linear)"/>
<path d="M17 11.2881L20.5 14.7881M20.5 7.78809L24 11.2881M24 14.7881L27.5 18.2881" stroke="url(#paint1_linear)" stroke-width="2.5"/>
<defs>
<linearGradient id="paint0_linear" x1="0.299987" y1="0.61146" x2="51.718" y2="15.0458" gradientUnits="userSpaceOnUse">
<stop stop-color="#FF5C29"/>
<stop offset="1" stop-color="#FFBF29"/>
</linearGradient>
<linearGradient id="paint1_linear" x1="17" y1="7.9242" x2="29.516" y2="11.833" gradientUnits="userSpaceOnUse">
<stop stop-color="#FF5C29"/>
<stop offset="1" stop-color="#FFBF29"/>
</linearGradient>
</defs>
</svg>
