<svg width="22" height="22" xmlns="http://www.w3.org/2000/svg" fill="none">
 <defs>
  <linearGradient y2="1" x2="1" y1="0" x1="0" id="svg_4">
   <stop offset="0" stop-opacity="0.99609" stop-color="#ff5c29"/>
   <stop offset="1" stop-opacity="0.99609" stop-color="#ffbf29"/>
  </linearGradient>
 </defs>
 <g>
  <title>Layer 1</title>
  <path id="svg_1" fill="url(#svg_4)" d="m10.9991,6.76221c-2.34116,0 -4.23775,1.8975 -4.23775,4.23779c0,2.3411 1.89659,4.2386 4.23775,4.2386c2.3393,0 4.2378,-1.8975 4.2378,-4.2386c0,-2.34029 -1.8985,-4.23779 -4.2378,-4.23779zm0,6.99139c-1.52075,0 -2.75366,-1.2329 -2.75366,-2.7527c0,-1.52078 1.23291,-2.75278 2.75366,-2.75278c1.5208,0 2.7518,1.232 2.7518,2.75278c0,1.5198 -1.231,2.7527 -2.7518,2.7527z"/>
  <path id="svg_2" fill="url(#svg_4)" d="m15.4055,7.5945c0.5458,0 0.9882,-0.44242 0.9882,-0.98817c0,-0.54575 -0.4424,-0.98817 -0.9882,-0.98817c-0.5457,0 -0.9881,0.44242 -0.9881,0.98817c0,0.54575 0.4424,0.98817 0.9881,0.98817z"/>
  <path id="svg_3" fill="url(#svg_4)" d="m18.8219,5.60156c-0.4299,-1.10825 -1.3053,-1.98458 -2.4136,-2.41267c-0.6407,-0.24108 -1.3181,-0.37033 -2.0038,-0.385c-0.8828,-0.0385 -1.1623,-0.0495 -3.4008,-0.0495c-2.23854,0 -2.52545,0 -3.40087,0.0495c-0.68383,0.01375 -1.36125,0.143 -2.002,0.385c-1.10917,0.42809 -1.98458,1.30442 -2.41358,2.41267c-0.24109,0.64167 -0.37034,1.31817 -0.38409,2.00383c-0.03941,0.88184 -0.05133,1.16142 -0.05133,3.40081c0,2.2385 0,2.5236 0.05133,3.4009c0.01375,0.6856 0.143,1.3621 0.38409,2.0047c0.42991,1.1073 1.30533,1.9837 2.4145,2.4127c0.638,0.2493 1.31541,0.3905 2.00291,0.4125c0.88275,0.0385 1.16234,0.0504 3.40084,0.0504c2.2385,0 2.5254,0 3.4008,-0.0504c0.6848,-0.0138 1.3622,-0.1439 2.0039,-0.3841c1.1082,-0.4299 1.9836,-1.3053 2.4135,-2.4136c0.2411,-0.6417 0.3704,-1.3182 0.3841,-2.0038c0.0394,-0.8819 0.0514,-1.1614 0.0514,-3.4009c0,-2.23937 0,-2.52354 -0.0514,-3.40079c-0.0119,-0.69483 -0.1402,-1.38325 -0.3859,-2.03225zm-1.1165,8.73764c-0.0064,0.528 -0.1017,1.0514 -0.2851,1.5474c-0.2796,0.7214 -0.8488,1.2915 -1.5693,1.5684c-0.4904,0.1824 -1.0074,0.2777 -1.5308,0.2851c-0.8709,0.0403 -1.1165,0.0504 -3.3495,0.0504c-2.23487,0 -2.46312,0 -3.35045,-0.0504c-0.52159,-0.0065 -1.04042,-0.1027 -1.52992,-0.2851c-0.72325,-0.2759 -1.29617,-0.8461 -1.57575,-1.5684c-0.17967,-0.4895 -0.27683,-1.0075 -0.28508,-1.53c-0.03942,-0.8708 -0.04859,-1.1165 -0.04859,-3.3495c0,-2.23387 0,-2.46212 0.04859,-3.35037c0.00641,-0.528 0.10175,-1.0505 0.28508,-1.54642c0.27958,-0.72325 0.8525,-1.2925 1.57575,-1.56933c0.4895,-0.1815 1.00833,-0.27775 1.52992,-0.28509c0.87175,-0.03941 1.1165,-0.05041 3.35045,-0.05041c2.2339,0 2.463,0 3.3495,0.05041c0.5234,0.00642 1.0404,0.10267 1.5308,0.28509c0.7205,0.27775 1.2897,0.84791 1.5693,1.56933c0.1797,0.4895 0.2769,1.00742 0.2851,1.52992c0.0394,0.87175 0.0495,1.1165 0.0495,3.35037c0,2.233 0,2.4732 -0.0394,3.3495l-0.0101,0l0,-0.0009z"/>
 </g>
</svg>