<svg width="566" height="796" viewBox="0 0 566 796" fill="none" xmlns="http://www.w3.org/2000/svg">
<g filter="url(#filter0_f)">
<path fill-rule="evenodd" clip-rule="evenodd" d="M213.306 62.5422L215.625 56.8882C213.741 61.4818 213.741 61.4818 213.742 61.4822L213.789 61.4975L213.95 61.5504C214.094 61.598 214.313 61.6702 214.603 61.7669C215.183 61.9602 216.049 62.2511 217.181 62.6374C219.447 63.4102 222.777 64.5647 227.013 66.0842C235.487 69.1236 247.581 73.6216 262.029 79.4441C290.942 91.0959 329.2 108.02 366.701 129.137C404.253 150.282 440.762 175.476 466.415 203.593C492.061 231.702 506.426 262.229 501.005 294.349C498.239 310.739 490.581 322.81 479.417 331.871C468.15 341.015 453.021 347.325 434.982 351.628C398.759 360.271 352.496 360.479 306.336 360.686H306.335L306.125 360.687C260.506 360.892 214.782 361.097 181.314 370.339C164.441 374.999 150.084 382.101 140.411 393.125C130.652 404.247 126.176 418.772 127.852 437.307C129.424 454.696 136.27 468.121 147.309 478.299C158.258 488.394 172.97 494.964 189.7 499.311C222.769 507.903 265.474 508.203 307.044 508.495H307.046L307.726 508.5C350.032 508.797 391.111 509.133 422.217 517.326C437.662 521.394 450.185 527.292 459.091 535.742C467.908 544.107 473.558 555.327 474.617 570.736C475.781 587.679 469.769 598.53 459.15 605.615C448.115 612.978 431.331 616.802 409.91 617.775C367.115 619.718 309.421 610.193 252.549 600.112C247.92 599.292 243.295 598.467 238.684 597.645C187.182 588.464 137.403 579.59 103.013 580.073C93.5642 580.205 85.0081 581.041 77.7448 582.869C70.4891 584.695 64.1853 587.598 59.6772 592.082C50.2704 601.437 50.7704 615.215 59.1477 632.532C71.0167 657.068 94.2127 676.124 121.651 690.906C149.122 705.705 181.28 716.455 211.785 724.219C242.322 731.992 271.405 736.823 292.838 739.711C303.561 741.156 312.385 742.117 318.539 742.718C321.616 743.018 324.027 743.228 325.675 743.364C326.498 743.432 327.131 743.481 327.562 743.513L327.674 743.522C327.835 743.534 327.962 743.543 328.054 743.549L328.183 743.559L328.218 743.561L328.228 743.562C328.231 743.562 328.233 743.562 328.599 739.328C328.601 739.304 328.603 739.281 328.605 739.258C328.022 745.997 328.019 746 328.016 746L328.005 745.999L327.967 745.997L327.833 745.987L327.694 745.977L327.509 745.963L327.331 745.95C326.893 745.917 326.253 745.867 325.422 745.799C323.76 745.662 321.334 745.45 318.241 745.149C312.054 744.545 303.193 743.58 292.428 742.129C270.918 739.23 241.714 734.38 211.032 726.571C180.397 718.773 147.987 707.951 120.232 692.999C92.5258 678.073 68.8083 658.679 56.6285 633.501C48.1347 615.943 47.111 600.915 57.6343 590.45C62.6029 585.508 69.4369 582.419 76.9994 580.515C84.5733 578.609 93.3873 577.762 102.969 577.627C137.673 577.14 187.749 586.069 239.122 595.229C243.769 596.058 248.426 596.888 253.084 597.714C310.048 607.81 367.384 617.257 409.77 615.332C431 614.368 447.123 610.585 457.506 603.657C467.265 597.146 472.996 587.151 471.878 570.886C470.854 555.975 465.419 545.316 457.092 537.417C448.631 529.39 436.605 523.665 421.44 519.671C390.784 511.597 350.142 511.243 307.704 510.945L306.75 510.938C265.386 510.648 222.369 510.346 188.932 501.659C171.927 497.241 156.728 490.502 145.337 479.999C133.809 469.371 126.735 455.395 125.117 437.504C123.399 418.497 127.979 403.325 138.25 391.618C148.392 380.06 163.329 372.746 180.502 368.004C214.361 358.654 260.407 358.447 305.762 358.243H305.763L306.226 358.241C352.533 358.033 398.439 357.816 434.273 349.266C452.061 345.022 466.738 338.854 477.57 330.063C488.249 321.396 495.616 309.843 498.292 293.986C503.555 262.799 489.662 232.948 464.286 205.136C438.9 177.311 402.671 152.284 365.236 131.204C327.877 110.167 289.741 93.2955 260.899 81.6724C246.491 75.866 234.432 71.3814 225.989 68.3529C221.768 66.8389 218.452 65.6894 216.201 64.9214C215.075 64.5373 214.216 64.2487 213.642 64.0575C213.355 63.9619 213.14 63.8907 212.998 63.8441L212.842 63.7928L212.806 63.781L212.799 63.7786C212.799 63.7785 212.799 63.7785 213.306 62.5422ZM215.625 56.8882C217.509 52.2946 217.511 52.2953 217.514 52.2965L217.575 52.3163L217.754 52.3752C217.911 52.427 218.143 52.5034 218.445 52.6044C219.051 52.8062 219.944 53.1061 221.104 53.5017C223.423 54.293 226.812 55.4679 231.11 57.0095C239.705 60.0924 251.942 64.644 266.55 70.5308C295.748 82.2975 334.494 99.4303 372.562 120.867C410.58 142.275 448.207 168.132 474.929 197.421C501.658 226.717 517.907 259.951 511.856 295.805C508.731 314.323 499.912 328.466 486.805 339.104C473.799 349.66 456.859 356.535 437.82 361.078C400.224 370.048 352.81 370.26 307.421 370.464H307.42L306.295 370.469C260.029 370.676 216.148 370.961 184.561 379.683C168.892 384.01 156.851 390.266 149.055 399.151C141.346 407.937 137.285 419.871 138.79 436.522C140.181 451.9 146.112 463.122 155.199 471.5C164.376 479.962 177.14 485.859 192.771 489.92C224.243 498.097 265.512 498.421 307.813 498.718L308.327 498.721C349.943 499.014 392.555 499.313 425.327 507.945C441.89 512.307 456.4 518.903 467.089 529.044C477.867 539.269 484.374 552.735 485.57 570.138C486.921 589.795 479.785 604.066 465.726 613.446C452.082 622.55 432.657 626.536 410.468 627.544C366.042 629.561 306.915 619.722 250.409 609.706C245.93 608.912 241.469 608.118 237.033 607.327L236.972 607.317C184.925 598.045 136.325 589.388 103.185 589.853C94.2722 589.978 86.7474 590.767 80.7267 592.283C74.6983 593.8 70.515 595.959 67.8491 598.61C62.9081 603.524 61.3132 612.305 69.2246 628.659C79.8504 650.625 100.96 668.33 127.327 682.534C153.662 696.721 184.81 707.18 214.798 714.813C244.755 722.438 273.353 727.192 294.479 730.039C305.035 731.462 313.709 732.406 319.733 732.994C322.745 733.288 325.094 733.492 326.684 733.623C327.478 733.689 328.083 733.736 328.486 733.766C328.687 733.781 328.838 733.792 328.937 733.799L329.072 733.809L329.077 733.809C329.077 733.809 329.077 733.809 329.002 734.673L328.943 735.361C329.098 733.561 329.184 732.573 329.231 732.031C329.289 731.371 329.289 731.371 329.289 731.371L329.285 731.371L329.158 731.362L329.042 731.353C328.956 731.347 328.847 731.339 328.717 731.329C328.321 731.299 327.723 731.253 326.936 731.188C325.361 731.059 323.028 730.855 320.032 730.563C314.04 729.978 305.403 729.038 294.889 727.621C273.84 724.784 245.363 720.05 215.551 712.462C185.693 704.862 154.797 694.475 128.746 680.441C102.647 666.381 82.0588 649.014 71.7438 627.691C63.9489 611.577 66.0676 604.046 69.8921 600.243C72.0975 598.049 75.7506 596.076 81.4722 594.636C87.1822 593.199 94.4492 592.422 103.229 592.298C136.055 591.837 184.363 600.441 236.554 609.736C240.968 610.523 245.411 611.314 249.874 612.105C306.288 622.104 365.774 632.022 410.608 629.986C432.988 628.97 453.074 624.943 467.37 615.404C482.289 605.45 489.705 590.324 488.308 569.989C487.078 552.088 480.357 538.06 469.088 527.37C457.954 516.806 442.947 510.036 426.105 505.6C392.961 496.87 350.034 496.569 308.633 496.278L307.834 496.273C265.405 495.974 224.566 495.634 193.538 487.572C178.183 483.583 165.906 477.854 157.171 469.801C148.572 461.872 142.87 451.201 141.525 436.325C140.062 420.146 144.02 408.86 151.216 400.658C158.543 392.308 170.005 386.263 185.373 382.019C216.482 373.429 259.891 373.122 306.308 372.914L307.67 372.908H307.671C352.883 372.706 400.589 372.493 438.529 363.44C457.819 358.837 475.211 351.821 488.652 340.913C502.245 329.88 511.354 315.219 514.569 296.169C520.778 259.381 504.057 225.471 477.057 195.878C450.068 166.297 412.162 140.273 374.027 118.799C335.817 97.2829 296.95 80.0978 267.68 68.3025C253.033 62.3997 240.759 57.8346 232.134 54.7408C227.82 53.1936 224.418 52.0137 222.084 51.2178C220.918 50.8198 220.018 50.5177 219.406 50.3137C219.1 50.2117 218.866 50.1342 218.706 50.0815L218.521 50.0209L218.458 50C218.453 49.9987 218.451 49.9978 215.625 56.8882Z" fill="white" fill-opacity="0.3"/>
</g>
<g filter="url(#filter1_f)">
<path fill-rule="evenodd" clip-rule="evenodd" d="M217.74 57.2271C216.798 59.5239 216.8 59.5247 216.8 59.5247L216.85 59.5411L217.016 59.5955C217.163 59.6441 217.385 59.7174 217.678 59.8152C218.265 60.0106 219.138 60.3037 220.277 60.6924C222.556 61.4698 225.9 62.6294 230.152 64.1544C238.656 67.2047 250.787 71.7161 265.274 77.5547C294.259 89.2352 332.639 106.211 370.282 127.408C407.95 148.619 444.738 173.979 470.658 202.389C496.575 230.795 511.411 261.998 505.833 295.052C502.977 311.974 495.029 324.563 483.379 334.018C471.677 343.515 456.095 349.966 437.807 354.33C401.241 363.054 354.694 363.263 308.737 363.47H308.735L308.368 363.471C262.559 363.677 217.26 363.896 184.241 373.014C167.669 377.59 153.891 384.481 144.687 394.97C135.441 405.509 131.068 419.386 132.702 437.45C134.228 454.336 140.845 467.21 151.396 476.939C161.902 486.625 176.127 493.027 192.583 497.302C225.285 505.799 267.682 506.097 309.468 506.39L309.863 506.393C352.037 506.689 393.553 507.008 425.11 515.32C440.834 519.461 453.854 525.534 463.206 534.406C472.513 543.237 475.125 552.119 476.218 568.026C477.428 585.648 471.136 597.353 459.656 605.013C447.97 612.811 433.777 619.575 412.164 620.556C370.248 622.459 314.352 613.475 259.202 603.747L295.422 614.903C337.972 621.806 379.371 626.942 412.443 625.441C434.44 624.442 453.205 620.496 466.197 611.827C479.396 603.021 486.251 589.605 484.947 570.627C483.785 553.722 477.492 540.818 467.204 531.057C456.961 521.34 442.948 514.918 426.665 510.629C394.263 502.095 351.962 501.798 310.121 501.504L309.906 501.502C267.735 501.206 226.034 500.899 194.118 492.607C178.212 488.474 164.962 482.409 155.341 473.539C145.766 464.711 139.606 452.938 138.171 437.057C136.623 419.935 140.788 407.354 149.009 397.983C157.274 388.564 169.894 382.096 185.864 377.686C217.928 368.832 262.283 368.569 308.396 368.362L309.277 368.358H309.278C354.85 368.154 401.973 367.943 439.225 359.054C458.015 354.571 474.502 347.838 487.073 337.635C499.695 327.391 508.223 313.766 511.258 295.78C517.152 260.859 501.374 228.302 474.915 199.303C448.461 170.307 411.113 144.616 373.212 123.273C335.285 101.917 296.662 84.836 267.535 73.098C252.967 67.2274 240.765 62.6891 232.2 59.6171C227.918 58.081 224.544 56.9112 222.238 56.1246C221.085 55.7312 220.199 55.4336 219.6 55.2339C219.3 55.134 219.072 55.0586 218.918 55.0079L218.743 54.9505L218.686 54.9318C218.683 54.9309 218.682 54.9303 217.74 57.2271Z" fill="white" fill-opacity="0.3"/>
</g>
<defs>
<filter id="filter0_f" x="0" y="0" width="565.863" height="796" filterUnits="userSpaceOnUse" color-interpolation-filters="sRGB">
<feFlood flood-opacity="0" result="BackgroundImageFix"/>
<feBlend mode="normal" in="SourceGraphic" in2="BackgroundImageFix" result="shape"/>
<feGaussianBlur stdDeviation="25" result="effect1_foregroundBlur"/>
</filter>
<filter id="filter1_f" x="129.366" y="51.9318" width="386.124" height="576.771" filterUnits="userSpaceOnUse" color-interpolation-filters="sRGB">
<feFlood flood-opacity="0" result="BackgroundImageFix"/>
<feBlend mode="normal" in="SourceGraphic" in2="BackgroundImageFix" result="shape"/>
<feGaussianBlur stdDeviation="1.5" result="effect1_foregroundBlur"/>
</filter>
</defs>
</svg>
